<mxfile host="65bd71144e">
    <diagram id="ov5HayisJxgcEnOwP8Mp" name="ページ1">
        <mxGraphModel dx="2500" dy="1943" grid="1" gridSize="10" guides="1" tooltips="1" connect="1" arrows="1" fold="1" page="1" pageScale="1" pageWidth="827" pageHeight="1169" math="0" shadow="0">
            <root>
                <mxCell id="0"/>
                <mxCell id="1" parent="0"/>
                <mxCell id="2" value="" style="shape=image;verticalLabelPosition=bottom;labelBackgroundColor=default;verticalAlign=top;aspect=fixed;imageAspect=0;image=data:image/png,iVBORw0KGgoAAAANSUhEUgAAB1QAAAOjCAYAAAAMLzZ+AAAAAXNSR0IArs4c6QAAAARnQU1BAACxjwv8YQUAAAAJcEhZcwAADsMAAA7DAcdvqGQAAL0ZSURBVHhe7N0J/Bx1fT/+dxJCAiEXSQiEyA0BuYRI5ShRAauAf1Q8WgtavKCHWrXa6A+xKFJrtdarB/GuUOuFaAU8AmqQw2JE/IIkHCFADOQiyTck5M5/P7Mz3+9+97v7vY/95vt85rHZuXZmdna+s7Pzms/nM+Iv//IvdwUAAAAAAAAALZqamrLnEbtKsi4AAAAAAACAIa65uTnv6rm5c+e2BKojs/8BAAAAAAAAaEegCgAAAAAAAFCHQBUAAAAAAACgDoEqAAAAAAAAQB0CVQAAAAAAAIA6BKoAAAAAAAAAdQhUAQAAAAAAgGHjBz/4Qd7VNQJVAAAAAAAAYFgowtTuhKoCVQAAAAAAAGC3Vx2idjVUHbGrJO8eVJtu/E5suvn6vC9i1P4zy88HHBh77H9g6Xlm7FF6lIeVn/vD0i3b4ufNG+OSaZPyIQAAAAAAAMBQ0dzcnHe16ig8veCCC/KuVnPnzo2mpqasu2EC1eSpV8+JHU8uy/vqG3PyqbHnSS+IMaVHCln7KmBNYeqh9zyYhalfOfzAfCgAAAAAAAAwVNQKVLurMlBtqCp/9//ugi6Fo1t+c1ds+NJnYvXb/zwLYdNzV4LYjhRhanLImD2zZwAAAAAAAGB4a7g2VLsaqlZKAWsKVpu/9JkeBauVYSoAAAAAAABAoeEC1SSFqnuf95q8r+tSqdW1V/99t0JVYSoAAAAAAABQT0MGqsnkD/5zj0LVVFr16Xe/IXYsLtdp3JEUpr7pkT/kfa0OHjM67wIAAAAAAACGs4YNVJOehqpbH38stn768g5D1SJM/XnzxnwIAAAAAAAADE2rN+2Kh9bsiHue3BF3PL4jfvHo9uyRutOwNC5NQ/c1dKCa9DRU3bZ2bcR/fqRmqNpZmPqiCePyLgAAAAAAAGhM23fuikfX7sxC0/tX7IjlzbuiefOu2LajNThN3WlYGpemSdOm16TX0jUNH6gmPQ1VR40elYWqO//vF/kQJVMBAAAAAAAY+p7asCv+b9nOeHzdzjYBamfStOk16bVpHnRuSASqSW9C1V3XfrolVO1KmHqINlQBAAAAAABoUA+t2RmLV+/oVpBaLb02zSPNi44NmUA1SaHqXW/95/j8C/82lk2amQ+tbY8xe+ZdEaPGjslC1XffeqswFQAAAAAAgCHrgVU7Y3lz34WgaV5pntQ3pALVz92/Iy454DXx+Tl/G+e8Y0EWrNYzZuKEvKsshaq/3bg576uvL9pPXblyZd7VNWn6W2+9Nb75zf+J++67L+tP3QAAAAAAAFBIpUlXPtP34Weap5Kq9Q2ZQDWFqf/v8VF5X1kKVuuFqilArbR070nx82kH5331vbALgeqHrvhg9qglBaJ/edml8bnPfTYf0rEUnqbpP1+a/me33ho/+9mt2Ty++T//0+1gFgAAAAAAgN1Tau+0L0umVkvz1qZqbUMiUK0VphZSqHr9iW3bVt17+rS8q9WbZl+Qd3WssxKqKShNgWd6pFKl1fbbb7948VlnxbHHHpcP6VgKUJOPXPXR+M9r5sU73vHOrB8AAAAAAACS7Tt3xZK1/V+CNC0jLYu2Gj5Q7ShMLfy/C/65TZuqYybsk3eVS6a++Mw3dql0atJZG6r333dfFpged9xx8a0a1fKmQDWFomeVpumKohRqmh8AAAAAAABUe2L9rti2o/+DzrSMtCzaGrGrJO9uOClMfd+vd8TO9duy/l1bd8aIPUfGyLGlx4TRMWriHtnw5O0LPhNv/8Vnsu4D//iPsucUpqaSqV0NU6+cuV/8w8z2pVsLqURqqpr37Xkp0tSdSpZWh6GpOuAXvfisllA1lWotSqyuWrUyC2Vf96d/lgWyRaCagthCGpYeqcRq5fDUrmp6bRqXhlcuI5WYTfNL61OpWHZlwJvex89/dmu7aRvRjT/8YXzpS1/M+1qdPHt2vPe974uxY8fmQ1pd85//GT/+8Y9iwoQJceWHPxKHHHJIPqbVunXr4ooPfjD+8Idl+ZCO59mIqrfNW97y1jj/5S/P+wZHsU6V65KGJYO9bn1h6dKlceU/fCiam5vzIa2G2v4zVFRu85e+9GVx2V/+ZT6mts2bN8cnP/mJWPHUirjqox+NSZMm5WO6rtZ+PJTV2287OkYCAAAAsPupvKZ84IEzW66fVV9rLnR2/aje/AqdjS8U1+uTymmKa30PP/RQth77779/1v+bhQuz8dU6ek8dLX+ouOPxHQMSqCajR42I0w/quLBjo6t1Hb+75s6dG01NTVl3w5ZQ/eaDO+I9N2+KrQ9vjO2rtmaPHeu3Z89bn9gcm+/fkD22PfFsjNy2M6v6N5VSTdX9rhkzLq48Zk4c+rJ3dKtkakdhanL//fdlz2flJVSTosreQgo7U7iZgtNCahs1hZ1FO6lJmm5aHpYW3cWjMkQtpJC2aFf12NKy03OaX1HtcHpNURVxIY0rll0p9RfLHqrSAfN9731vdqCtlPqLbZD+WFIAXe2399wTb37TJW3C1KTePBtReg/VX3CpP31JDKYUPl3/vRvahKnV67m7SvvP17761byPvpL+hosvvvS3PRB/n9X78e4qbdf3vPtd2fEEAAAAgN1b9bXadH3885//XBZa1nPaaafXDVOrr1Gn+aVQtLh+15Pl9ZVU6Kr6unRa/rv+9p1Z4YOhaPWm9qVTr/r55njxlzdkj9Rd2LhtV7zjh5taxi1Yuq3dsOrHn31zY6ze2FqdcFpWWiatGjZQ/cD/PpMFqB1J41O4uuHu9Vm4+vGjzo1rDjslpp7/nvjwMS/Mp+qarxx+YN5VXwonU3W/SQowU6haK7CrJQWgRTup6fms0nxS1cApHE3zSt3FI5U8rZSC0RQkpJKxRTurRcnYIiwt1qcyPE0BcBqell0ZtGahbBfbeG0UqaRYCjjS47+/8T9ZacB0AEwhc6Xbf/nLbPiZZ56Z3T1zz2/vaXOATgfzL33pS1l35Tw/9a+fzqZPr03zKKSD/oWvemXLIx2IG8GvfvWr7PlDH/qHbP3Tc1L5ftMXwyV/8caWda8OW9MXXuV7qwxVivddvCbN86MfvSre8fa3Z9swPVJ3eqThadq0bSpflx7Fl1Z6/vCHr4yPfOTD2ToVX1rFfCuHDQVp/0v7YfX+UwR+xbb/fx94f/ao3JbV270YXrlNU3eStmmtadI2S9suDa+cV/X+WTl+qG3jJL3fH/3oR9ndY8Xf/NJHH83Htqp8nz/84f/mQ8uKzyJts3/91L+02RbFuDSsctsV8yu2e/E5fOc7326ZvvJzGiqq99t0DEzSMbHyvRTvNz1q7TcdHTuKfbSj1wMAAAAwsNK1xHTtOF3DTNcyi2vsqeTnU0891VLAoPK6Ubom96d/9mctr6++jlt5jbqY34YNzdn1oc6W11OpdsAPfvCKbB2LeRbLSMM+9/nPZ9cPUw2Waf2//JWvtpk2FTD48Y9+lM9taFn7bMdtp658ZmcWmiaPr9sZj5YevdXZMoebhgxUP/yzZ2NpNz/snWN/H/eftiiuf9FZsefee8fIUV0vinzJtEnxognj8r7aipKgL64IO1O1vdVhZT1Fu6s9UZSMrXx9CkqLkqrF8ov+Qgp7iwC4mEfxPnq6Lo0gHTQvvvgN2YFy1epV2cE5qTxIn3ve+XHEkUe2O0Cng2kKZVLVoZWlz9JdNu9617vbDE8hQfVdLOlAXIQsg2nmzHKbwUUQ8ryTTsq+GNKXSdo+6UutuorP9F6K4CM9p3CzUuqvDEa6Im3LonqFF7zgBdlzPaNKf5MnHH9Cm5LD6bNJn1H6rFJ1DUPd9P2nt6nyd9GiRdkj7ZPp77PWdk+fSwqwUlUT6e+y8qQj7d9JEZQX++9JzzspFj3wQIf7Z3quHJ+2+7988pNtgrNGV7zftF1efn7577I4UStU/53+93XX1azyIw277bbbsu7ytvhEm7+RtO062//TvIvp03pV39Ax1Jx9zjltTnSTtC+mbVFI77eyFGutfbg4dqR9NN1lmLZNYSjudwAAAAC7m3TdJjWRVVyHTdcw0zXGdO1m3dq1+VRl6dryt7/9rXjZy17WYfW4qWmudE06XZsuFPPvzvL6WnH98C1veUvL+heZQiqI9ReXXJING2qe2Zp31JEC1BSkJv+3bEds3Nq2dOm40SPicy/fO3725vHxwzfsE8ftNyrG7Tki/v3/Kw/7nz8dF1PHtY0MO1vmcNNwgerPH90eH761G0W+x62JkWd/Jns8NGl1LBxxfUyfOCYmTp8e46dOiT32HNNhuHr6xPFdKp2aSn6mELMo8VkEl6m/ukrdvraqtKxi2ZWmTWvbn0qdFgFrCk5TdwqAUxhRBFip7dQUslbPa6hJB8Lx4ydkB+V0cE4qw7kUkBYH6MpSxH/4wx+y51rhXzrw12qfsbIka3o0QjWgKZxLIV0KLlL1xakkWGUJu/Se03svSrCmO3HSHTk/vPGHWbCRnpPqEq7VYVVXFPOo/OJM0nYqSsCl5xT2pmnSei9bVg5civVMn1VlENm8sjmeaHqi5iONG2wpnPvz1/9ZSym8FDgl6Uu58n2k95rujvrq1/4rO3Go3u7F53LnnXdkJyppvyz22WJ/Tor9PH0+RThbqLV/pmlTCFt5F1ZaZtpfKktgN/p2LvbHtF0OOfTQ7P0UpYCT9D6LbVpsh6K0cLXisyi2eToWvPa1r8tek26kSIrjQz1pumJbJpU3dCSNvj2rpX112tRpLSeyaR9M+2L1fpN059hR+fr0SHcGVp58D7XtBAAAADDUpes66ab6WqqviaUSnOna+xl//Mf5kNaSoek6Z3UVwOma0l9edmnW/d73vi+btjvL60vpWl26ZpeuT6XriZXSer/7PX/X5vptLY167erZbXlHDWcdNjoLUFOQmjy+fmdMHzcyC017o94yh+v1vYYLVD/ys2fzrs6NOOzOGPWKD8WI6Q/Gro3bs8fOrati1ZPlC74pTE2hahGujps0KcaO3yd7To/nTN8vbj/moGzajqQL+EWImg4MxSO1a1oM70op1f5WhKSpNGp6pCA1DStK0iZpPVPwujuqDueK0LEo3Vep8qBdVO9ZPIrqVIsAJ5V+K8Z1VoJtoKSD/6c/89ls/QqpVFmx7kVgmUqOpfUu2oxNwdz69euz58ovlRR0puCjVqDckVpfTB1JoWIKvItQLK1ndUCYTNhvQunvdmLe1yoNS+MaUdr3qkviFXdgJUVAmkoEHn3MMdmwFDKlO72KQGvS5MnZ9kjbJfWn4SnES5/dAw88kJ0MpJOZ9LqO9s+0D6TPuDJwL0oVFvtG0sjbOW3HtJ8U+1h6z+mYlt5TUe1v8T7TNMUJXrGPVau8Gy6VJK7c74oS350pbsQotn21objfViqOoZV3H6Z9Ne2zXTl2pG2bjr+V+11xTKo01LcTAAAAwO6quOG+s9KpldK16hS0putCqRBKI1xDr6yRrbsa9dpVdfuplY6ZNioLUFOQmtpBvX/Fjjh2+qjYb5/eRYD1ljlcr+81ZAnVrhhx6tdj5KnX5n0RO5tbL9huXv7dLFitlMLVVBXwXuMnZM/7jtkzHj90Wj62Yz/7Wbma3FRfeGrHtPKRhqWwsqhStz+ki/61QttU2jQpgtT0nAKH1NZrujBetMWahqfXpwA4SdMMdcUdLkUVq+mCfQpOkyJgSqUGUziQShOm6lGTAw8sl0auDJXqSV8YqWRVZYm3FEpVlgQdTMX6VZYSq67iuFraZmmbdFcRXPVWZeDym9/8JtunK0PHStUH5UY6GKeAKdW7X5TAK+rgrwz7qqXPK4WhHakMnFNJwBRcpRAv7X93lU5k0ueb/n7TvHq6f1aXqmzU7VxU91sZzhVV0aZtUx3SNYpG3m+rpW2Y9oe0/6Qwvzg+9kYqIZ3+JopSv+n4m25ASifjlYbSdgIAAAAY6jq6Nll5Tai44b6z60Tp+vw73v727FEEl8VrUk1mXV1eX0vXnytrZKuUrk/9vw+8v0tB61C7dpWq7p02bkQWpP586Y5YsXFnHDSxf+O/4Xh9r6EC1a/e07UKmUcef2OMPOyuvK9s18a2ZY83Pvof7ULVwj47tnc5TE1SQJmqyf3TP/2zOKv0XPlIw4oQs78U7bZ+/nOfbanK95vf/J8sdKmuvrcojZoeRXBaBK1FIFs5/VCVqh1IB8WiNGoKTGu1m1goqqMsSpZVtjVZBAD1qgot7rApqgpN27Gnd7f0hRSCVDcAXpQiKxQl7opqOYtHeh9HHnlkFkSnoKqo/jXNJ82vujRZETwX4VZfKEoOp/05zbP4DGspDsq7w8E4vce03SsD/rQf/ai0LxeBVpvAuTRdmj7tsylkTe1/pn2+urrqWvvnli1bstem/sqqV9OjaGe3UqNt57QPFlXL1lLcOFBs08p9ubNjwUAYKvttsa2KmxqKEtJpnyyOccU0aTtPnDix3faud+wo2tBIVTGn/TadjFcbKtsJAAAAYKgrrqMV19XSdZxUQKm4LpkUw9I1xaJ2snpSYJoyh8rrRMU1+HRtuivLq1TrOl9SXJsqau3riuL66Ze+9KWWa1xp+dde+/VYtGhRfP7zn2tzHaueRrt2NXrUiLyrvXGjd8XzD9wjC1JvXLw1C1j/aGbvqvtNOlpmMtyu7zVUoLrg0Q4qgS6MWxMjjr8p7ynbtW1nRHpU2L7h97Fl9c/bhaojd+7oVpiaAsyko2pyU0nQWiVI+0oKQD9y1Uez7hRCpdI+3/yf/8nC1He8453Z8EIRlqbnyuA0Ba1Jes1QVFmtaVFSLR3Yi2o+i4N1dXuSRUhahKDpoJsao06q51mUaC0CvuqqgItqc4sSgoMlrVtax7SuaZ3TuqWqFCqDkSK0LKr8LR6p9GJ6/cvPL7cDW12aNw1P44u7hNJ2TuOL6mJ7Ki2nuFupKIWZpHWsru63WjoQN9rBOG3ryjZUi+3f0clG5XYvPpdinzrttNOzYDQpPrskfc5pX0t3VSWV8+9o/5w+fXpLMFuU7iwe9arcaKTtXFSPXCsQTiUfi4Cu1r7c2321rwyF/bbYVsXffdoH075Yud9UTpP2xertXXnsSCei6e+8mH96pOk6+jtvxO0EAAAAsLtJ134qrylXX09O0rWdVEthCjbT9JXSuOpCPq3BZfk6UbqWXFwH6sryKhXTJ8X80qO4NtWda/JF4aPKa1zF8tP6XXzxG9q9v3oa6drVXqPzjjoOnVwOP5eu2xn7jB4R0/buOAztis6WmQyn63sNFah2pbrfEQe2L3m0a2Ptkq2p6t/KkqopTF19yNSsu6vSH2q6iH9WB0FkGvef18zLpk0hZupOJVcLqb86+Cyk6dL4SsUyKwPRNCxNlx4pXE3ja82zWH6teaZh9dZjqEkHxE988pPZQTSFdCkwrXXRvgjv0sGzqIo1tflXlOarVFTjmkqsJuk5BbSV0jR/cckled/gqbduRaPfKRi58sMfaQnmksp1T9ugqCa4kOaXhifpuaiyM/nziy7KXt9dKfCu3s6VX471vkCHovQ+r/roRzv8Yq+33Svbrk2vL6rDKILt4uSk8mSms/2z1vjKz7iRFVWLpONW9fYstkXRNnJ6P5Xv88wzz+zRvjocpeNDuumkcp9I+2Ll3371NPX24TQ8fVbpb6D6b/5d73p3yw0DAAAAAAyO6uuF6RrO29/+jpbrjek6+4YNXW8urvo6UbqOlK5JF9eBOltetTR99XWnJM2j8vppZ9L8Uy19lctO0vI//ZnPDtnrVPvsmXfU8dy8HdUktZ86Ne/ujc6WOdyM2FWSdw+6kVe0rdO6ljed/VhcN+UTsWOP1tXeuXpT7Fz1bN5X28g9p8WciQfEV2a/Nw7Ze3o+FBgMqXRlutMofamlL0oAAAAAAKC21Zt2ZW2kVrrq55vj1iXb4sNnjY05h4zutL+wcduueP+Pn41H1+2MT7x0rzhmWu3qgbNgtg9Kug6WVGint+bOnRtNTU1Zd8MEqqkY8mH/sj7vq+2Sk/aML184Ln7Z/ECc89hHW0LVHU8+E7vWbcm6O/OiaScIVWEQpVKFn/zkJ7IqXSvvWAIAAAAAAGq74/EdsW3HwER6qf3U0w/qfTusg6mvA9WGqfJ36dq2baBWK8LU5I8nHBPzD/5gjNre/WT856t+F29a+MlYumlFPgQYKKn9zqK++te+9nXCVAAAAAAA6IIDxg9cadGBXNZQ0TiB6rr6gWplmFqoDFVHjO7e2xCqwuBI9eqn9n/TQ1W/AAAAAADQNc+ZOCIrOdrf0jLSsmirYQLVx9a1rfu5UCtMLRSh6l771B7fEaEqAAAAAAAAQ8EeI0fEYZP7P9ZLy0jLoq2GCVRredGhe9QNUwspVP3R4R+MA/bdLx/SdSlUffGC9wlVAQAAAAAAaGj7jx8RMyb0X7SX5p2WQXuNU0K1qg3VFKbe+ubxeV/HUqi6/EVfjxdNOyEf0nUpTBWqAgAAAAAA0OiOnDIy9tun7+O9NM80b2pryC3TnTC10s/O/ET2OGTv6fmQrhGqAgAAAAAAMBQcM21kn5ZUTfNK86S+hts6PQ1TC6mU6qMv+6+48pg3dCtYFaoCAAAAAAAwFKTSpLOmjorRo3peRW96bZqHkqmdG7GrJO8eVG++fmMsXbezV2FqPamt1A8v+nos3VgOSzsKTVMI+7M53S/lCgAAAAAAAANp+85d8cT6XfHkhl2xbUfXIr8UpB4wfkQ8Z+KI2GPk7tlmanNzc97Vc3Pnzo2mpqasu2EC1Z8/uj0rnTpQUsiaLN30VPacPLZpZfb8wqkn9Kg9VgAAAAAAABgMqzftirXP7oxntkY8uy1aAtYUoO41OmKfPSMm7zUypu69e4aolXbbQBUAAAAAAACgt/o6UFUpMgAAAAAAAEAdAlUAAAAAAACAOgSqAAAAAAAAAHUIVAEAAAAAAADqEKgCAAAAAAAA1CFQBQAAAAAAAKhDoAoAAAAAAABQh0AVAAAAAAAAoA6BKgAAAAAAAEAdAlUAAAAAAACAOgSqAAAAAAAAAHUIVAEAAAAAAADqEKgCAAAAAAAA1CFQBQAAAAAAAKhjxPr163bt2hWxc+fOSB07d5WfS/9lz8WjNGm5u/SvUnkcAAAAAAAAQO+NGDEi7yobkf5lw3Zlz8Wj9F/2PHLEyPLzyPRcfkVvzZ07N5qamrLuERs2NO8qh6nlcDQ9UqiaFP1pZBGcFs+F6v62er+yAAAAAAAAwO6mfsaYhaUViv7KELUYVoSp5Uepf+TI2Lmzo/yya9oGqs9s2FUZmpY7i+7SI38z2TQVz0lazcp+AAAAAAAAgN5I4WhlAlmEpy3PeYnV1kc+Lu/fuaNceLQ32gSqGzdu3FUEp1k4mrqzRzY+7y73FM+Z0jq16QcAAAAAAADoA1lAWhlNpv78ubU7H54Py/6Vnrdv356N7402geqmTZt2VQam2b/Sc1qNrL9iXGnyrDsphgMAAAAAAAD0tSI4LSu3n5pk4WnpkaWXqTsPUotx27Zty7p7o02gunnz5l3VwWlLd7YaFeFp8VxHy3QAAAAAAAAAXVQEonVVBKbZc14QNAtUK8alx5YtW7L+3mgTqJZmuKslQC09V3YX2nTnISsAAAAAAABAfyvC06QIT5PqILXo3rx5c9bdG20C1a1bt+wqPbULUmsFq4VawwAAAAAAAAD6UmWAWqgMT9s/74pnn+3rQHXb1l3ZrLOQtDVYTYSpAAAAAAAAwGDqKFRNiiA1Pack89lNz2bDe6NNoLpt27YsIS2q8q0MVwtdDVGFrQAAAAAAAEB31QpNa2k7XWuImhRVA2/atCl77o02ger27duzZVSGoZXtpLZZpS4Fpl17swAAAAAAAAApnexMZZBaOXWt9lU3btyYPfdGm0B1x44du6qD0k6D09K6dC1cBQAAAAAAAOi+LCDtLLZsU2K13P/MM8/kfT3XLlDNunKdBaWCVAAAAAAAAGCgVIem1arH93mgunPnzl1dCUkFqQAAAAAAAMBg6SxYTdI0GzZsyPt6rl2gmnXlBKcAAAAAAADAUFEdtPZ1oDoy+79CWmCtBwAAAAAAAMBgqZVhpkd/a1dCFQAAAAAAAGCo6vMSqgOV3AIAAAAAAAD0l/7KPVuq/C0WIFwFAAAAAAAAhoKByDhH7CrJuwEAAAAAAACGtObm5ryr59pU+Zv9DwAAAAAAAEA7AlUAAAAAAACAOgSqAAAAAAAAAHUIVAEAAAAAAADqEKgCAAAAAAAA1CFQBQAAAAAAAKhDoAoAAAAAAABQh0AVAAAAAAAAoA6BKgAAAAAAAEAdAlUAAAAAAACAOgSqAAAAAAAAAHUIVAEAAAAAAADqEKgCAAAAAAAA1CFQBQAAAAAAAKhjxK6SvLtvrLwpPnDZvFic99Y1dnLsN/k5Mevsc+KVZ82JQyfnw7tp8Vcuig/8YGO558S3x5evPCcmlfu6b8fWWPHIgrht/p1x531LYtmTa2NbPmr0pOkx88hT45yXvDBOO/mwmDQqHwEAAAAAAAA0jObm5ryr5+bOnRtNTU1Z9+AFqm3sGYdeMDeueOPs7gWVm++Mf33jx+O2IvWMmfEXn/98vOLAvLcbVtz9lfj052+Oxc1b8yEdGHtYXPCeuXHJKdPzAQAAAAAAAEAjGFqB6okXxeXnH5YNbmtjrFy8KBY9eGfc1VRRCvSYS+OzV50X07sYqm6941PxZ59YEDFhZsyMZbGstG3GXfDx+PqbZuVTdMGOjbHwK++Jf75xRb4ee8a4Y+bEn587J46edXjsNzYNWxvL7v1d3Pnz78fNv2mdbtZbPxcfO1+oCgAAAAAAAI2irwPV/m1D9YBZMfuU2TUec+Lciy+Nd3/kK/HNa94TZ04pT77tgXnxga/8LrpQRrRkbSz4yYJy54kXxdvOGpd1bvz5HbF4R9bZBRuj6Ytvj6vzMHX0fufEu6/5Vnz9H98e5555Qhy637gYNyE9ZsasM8+LS664Jr75+bfHqdn6bo3FX3x/fKGpa2sLAAAAAAAADD39G6h2xX5z4t2fek+cObrcu+7GefGDx8vdHVq7MG67t9w5a9ZhcfwfnRNZpNp8c9x0d9dCzq1N18W//mhtuWfKefHBT709ztyv3FvXgefE31/1piiXgV0bN3/x5liWdQMAAAAAAAC7m8EPVJMJc+LSd82Jcqa6LL598++yro4s+8UNUS5kOyvmpLZMjzo9zp6Q+rfGbT9aEOuycR1ZFjd/8aZ8upnx5x+6NI4vF3Lt3AGviEsuyCd+/Ka4qysBMAAAAAAAADDkNEagWjLuBefHuVkgGrHtlruiqcNqe5fFXT/Jy4Ue9cI4OZUqHTUrTntRHnLee0P84g/lzroe/Gl8Jw9CR7/oorjgoHJ3V806+5Vx6KQT4syLXxuzRtcoEbtja6y4+9vxrx+6LN78+lfGha9Kj9fFm//6Q/Gv312QtfcKAAAAAAAANLaGCVRTIHr8KXn3toWxuKNA9IGfxvefLHce/yenxfRyZxZylmvsXRbf+cnirKuexXfOj41Z155xzotOK/3fTQe9Nv7lKx+Jd7/6nDj+gKpX71gRN191cfzVP14XtzWtiHWb8+GxNdY9+bu47dpPxTvfell84d7yGgAAAAAAAACNqXEC1ZKZh5ZbJo1YEU8sq98O6uK7ijD0hDjz5MlZV+ag0+LcvKTpxp/fEYvrlnJdG0sWF2Hm8XH0oXlnn9gaTV95f3zh3rT+e8ahF7w9Pvypa+LrX7suvn7Np+Lyvzgt9kt1G29bETdf/am4LW/CFQAAAAAAAGg8DRWoTp5clDWNWLm2TtK4+c646eY8DD35nDitIk9NbaHOfvHMcmfzzXHT3fVC2Sdi2QN55+jpMSmvarhP7GiKBTeW132/1/1T/MubzonjD50e4yaMi3H7HRazXzk3/uX950RWOfG2hXHTHSuyaQEAAAAAAIDG01CB6p7j9sm76tv6mzvjtm3l7jPPPrUcTFaY+cJXxvFZ19a47UcLYl3W3YFDZ+bVBPeRNSsib901pu/XJu1tMe7kl8TZU8bFfgdMjz0jfzMAAAAAAABAw2moQLVza2PBTxaUO0fPidNOrtHy6eTZceaJefe9N8QvOmqLtSvunRcXvuqVHT/m3hQt5UynzIzDUpW+JU3XXBVfuHtZbG1X9fCsuOSL18V//vs18eHz8xK1AAAAAAAAQMNpqEB149pOqr9duzBuu7fcOfrsc+LUseXutibHnD+Zk3cvi+/MX5x31/HosliZd/aJUSfEua/JQ9JtS+Lmf3x7/NlrXhdv/tCn4r9vXBiPrqzfNiwAAAAAAADQWEbsKsm7+8bKm+IDl82LLMZ82Ufi+stOyAZ3xYofvCf+6itLsu6zr7gh/ubkrLPFshveHu/8WlGhbhdNeEV87Mtvilmj8v7Mivj+ey6Lrz2auufE33/jPXXC2ZK1S2Lhw7Xac10SP/jH66IpdR51afzHx8+LlhZgd2yMpm9dER/91pLaFfqOnRknX/C6uOT8OTGzL9tvBQAAAAAAgGGuubk57+q5uXPnRlNTlgQ2UgnVrfHow+UwNeKwmHlA3tliWdz1k26GqUnzzXHT3dWlQqfH0ScWra/eFU0dFWKdfFjMPmV2jcesqFtZ76hxcfzrPxXf/Mbn48NvfUWcfNC4yGsBLtu8LH7zrU/FO996WXzh3o35QAAAAAAAAKDRNE6gunlh3HlX3j3h+Di6OlB94Kfx/SfLnePOfFNc/v+u6PjxpjlRjky3xm0/WhDrsu5Ws/7onJbxC+76Xen/fjB2Zhx//pvig5+5Lr75nW/Ff3zqinjbBbNj5oS87ddtK+Lmq6+JuzaXewEAAAAAAIDG0jCB6rrbb47b8vpxx511eswqd7ZYfNf8KJflHBdnv/wVNUqMVj3OPz/OLqrTvfeG+MUf8u7CMS+J1xxU7tz4o+vi5jys7Tej9ozph86Oc990RXz2y1+Jy8/OS8huuyuaHip3AgAAAAAAAI2lMQLVjXfGV675Xd5zQvzFBVVx6uY746ab86pxD3hlnHNUubNDo2bFOa8qKuVdFt+ZX12v78w4963nxaSse3F87Yp50dQHte9ubPp2fPR9l8WbXz83bl6ZD6w2alzMPvOFec/WiJ15JwAAAAAAANBQBj9QXbkg/vVvP95SOnXWm/4mzplc7i5s/c2dLeNn/slp9dsurTLzlJe0TLvx1jti8Y68J7fn8ZfE3NcdVm7fdM1N8Q+l9bj54S6kqit/F9//xL/F/Ly30rgxz8Tih1fEus2L49vf+11eqrbaxlh42y/y7tlx9KF5JwAAAAAAANBQRl1Zknf3jY0PxS0/XBhrUve4GXHEuM3x5PInqx6/jztuvimu/9pn4t+uWxCPPpu9Miad+p744CXHxj5tYt618bMvfTbuXpG6Z8ar3vZncXRRlW9nJkyP0Yu+X37tlkdj66GviNNmjiqPy4yKqcf/cTx/7MPxs3tXxM5nl8Vvfnp9XP/Lh2LjrhExavTY2GfUiNi2ZW384cHFsfCX18d///sn49P/PT/ufWJjVrB09BGviA+893VxZF6Db0w5JKY9dHPc9eSO2Pzwz+KHC5+NyQdMjHF77RkjtmyLlY8tiB/++7/Gl+9Ym71+0vl/FX952vTSmgAAAAAAAAC9tWXLlryr5+bPnx8rV5arox2xqyTr6isrb4oPXDYvqivY7diecejrPhgfed0JMa46WVw7P/7hzZ+PptR91KXxHx8/L6ZnI7pm48+vijd8ZmG558S3x5evPCev5retjQ/fFPM+/dW47Q9b8yEdG33g7HjFX1waf35KjbXZuDi+esUV8YNHO55XCpA/9t45MV2aCgAAAAAAAH2iubk57+q5uXPnRlNTllAOXqA6esL0mHzwrJjzgnPi7JecENP3zEdUWXbD2+OdX1uWdR//9q/Eh8+uqg+4M5vvjH99Y1Gl8Mz4i89/Pl5xYDampq1PLo4Fd9wYt92yOJasXhEb86qGY+zk2G/mYXH8qafFOafPiVkH1Fnhwo6NseyOm+LbP50fix9bGyuby+Fqet8zZ82JV77+vDjz0G6+FwAAAAAAAKBDjR+oAgAAAAAAAAySvg5U27RWCgAAAAAAAEArgSoAAAAAAABAHQJVAAAAAAAAgDoEqgAAAAAAAAB1CFQBAAAAAAAA6hCoAgAAAAAAANQhUAUAAAAAAACoQ6AKAAAAAAAAUIdAFQAAAAAAAKAOgSoAAAAAAABAHQJVAAAAAAAAgDoEqgAAAAAAAAB1CFQBAAAAAAAA6hCoAgAAAAAAANQhUAUAAAAAAACoY8Sukry7T2zfvj22bduWPfp41gAAAAAAAMBuYMSIETF69Ojssccee+RD+0Zzc3Pe1XNz586NpqamrLtPS6imMHXTpk2xdetWYSoAAAAAAABQU8oSU6aYssWUMTayPg1UlUoFAAAAAAAAuipliyljbGR9HqgCAAAAAAAAdNWwClSVTgUAAAAAAAC6o9Ezxj4NVAEAAAAAAAB2JwJVAAAAAAAAgDoEqgAAAAAAAAB1CFQBAAAAAAAA6hCoAgAAAAAAANQhUAUAAAAAAACoQ6AKAAAAAAAAUIdAFQAAAAAAAKAOgSoAAAAAAABAHQJVAAAAAAAAgDoEqgAAAAAAAAB1jNhVknf32vr16/Ounvn2A7vi3xdGrHwmYvkzfbZaQ8bdr1ySd9HX1qxZE888U9qxGFATJkyI0aNHx/Tp0+OAAw7IhwLQCLZs2RJr166NTZs2xc6dO/OhADCwRo4cGXvvvXdMnjw5xowZkw8FoKuc1wMw2PrynH7ixIl5V+81NzfnXT03d+7caGpqyrobJlD91u93xT/eEfHYutQ3/MLUJAWqs2fPzvvoS9dff32cffbZeR8DaenSpVmgfeCBB8b++++fDwVgMKWLLn/4wx9iv/32i7322itGjBiRjwGAgZUuSTz77LOxcuXK7DeDUBWg65zXA9AI+vKcXqDaBWdduyuWrC3NY8vwDFMTgWr/EagOrhSqrlu3Lp73vOflQwAYTE899VTss88+LXcOuvACwGBJpam2bt2ala5KtQq5CROg65zXA9AI+vKcXqDaBcddsyv+sGH4hqmJQLX/CFQH39133x2nnHJK3gfAYFqyZEkceeSRWXUsqVoWABhM6QJMuqP9wQcfjMMOOywfCkBnnNcD0Cj66py+kQPVhvmmHe5hKuzu+uLgBUDfSCe5Y8eOddEFgIaQvo9Syar0/QRA1zmvB6BRDIdzet+2AADDkIsuADQS30sAPeP4CUCj2N2/k3zjAgAAAAAAANQhUAUAAAAAAACoY8Sukry719avX593dd/kTzZevcoXHD06XnPcnnHGQXvEcyaOjD0q4uftpdV9Yv3OuP3x7fGd+7bGDxZty8f03N2vXBKzZ8/O+3Z/d9/9f3HH7XfEAw88EGvWrI4dO3Zkw0eNGhVTpkyNY445Jk4/4/Q45ZQ/yob3xvXXXx9nn3123kfht7+9J+7+v7uzhqLXrn26zWcwefK+cdRRR8Upf3RKPO95J2XDe+OWW27xGQA0iIcffjhOOukk1YMB0DBSW0v33HNPHHHEEfkQADrjvB6ARtIX5/QTJ07Mu3qvubk57+q5uXPnRlNTU9bt27aG2TNGxc/eMj5uuGifuPjEPePQyW3D1CT1p+FpfJouTZ9eR+ceeeSRuOKDH4yP/eM/xi9+8fNYuXJFS5CXpO40LI1L06Rp02voO0uXLo1/+tjH4jOf/nTcccftsXr1qnafQRqWxqVp0rTpNQAAAAAAAMONQLVKKpV652UT4oWH7JEP6Zo0fXpdej31pVKp75/793H//fflQzqXpk2vSa+l91Kp1I9e9ZFYvHhRPqRzadr0mvRaAAAAAACA4USgWiGVMP3O6/dpVxq1q9Lr0uuVVK0tlTL9549/vE1JyK5Kr0mvVVK1d1Ip089/7nM9/gzSa5VUBQAAAAAAhpPdpA3VsTH/8r3irLE74ktXNMfb8qFle8f9V42J+M3aOPZ7ld356Aqp2t6OS6Zujv/+7LNxcewRy985PvbPh1b7xdLt8eIvbcj7uq63baiumf9vcd616+Ki910e7zw2H9ipp+IHV30pll5YvOa38dlLbozo1jy6JlXdW69k6gUfuS4uOX5cuecP8+PCt3++3F3l2GOPi6s++tG8r+t63IbqQ7ti8vdr/YmMiB+/d0T0vnXXvrXizp1x9KKIRW8aGdPzYZVS1b0dl0x9e3z2e+fEzA4+g1mzjo73f+ADeV/XaUMVoHH0rK2lRfHDeQtied7Xxvhj48LXnxFxxzfi+scOatc9ddEPY949k8vd+Ut6p966jI9jX/X6OGNa3lsprcOC5TH+uAvj9afXWYt8mkodTt+h8jrGnEvj5Ufng3oszeuemFzvvQHsBrShCtB9PW9DdXXc/o3r4/7Ky5cz58Sl5/X6xLVHFt00LxZEV5dfY91zM+qde3flt8Cq2+Mb37s/2sx2ELcJwFCkDdWh4FV7xlmxIx7YPCpe/eax+cDuSVX1dhymboqrr3g2Ll6V93YgzWfgq/79bVx3bcRFZ02K667/cazJh3bf8+KdX+37MDVV11u3mt8LPhKvPX5cLLvllXHhV34XGw88J77+kVfkI9tK8xjwqn+nlM673jsy1lY8Fp2xK176yV0xlCohTtX1dhimlj6Hr6cwNe+tJ81D1b8Aw1UKLC+NSy+teuRB6dTTX9/S3f9qrMuc8XH/974Rt7c7X1sdt9+zPGbMnBEb7rsran0bpos45fyzcp5zYvx918e8m7peTT4AADS2ciD5+MEXVpz3XhjHrl8Q875xe2ns0JDC09b1Lz1edWxsWDAvftju1L3z3wKr7/hGzPve43FQm98XQ2+bANC/dotA9QvPGRXrntwaX35yV0w6YHT8XT68O15z3J55Vy0pTN0SV+R9XdHx/PrB/ffHdYcfERedd0Sc/sjDcXu7b/pU8vTqeEHx+K/floaVS6de/UjEdZ+4Ot49/6mW6T57f0TTfxXTtUqlYFuHpddXzPOq+kHuHbffkXe1d8HzD49xsTHWPl7q+cHCWLIxYtxhs+OC8uh2OprXQJl+2oi4PHbFY8UbTiVZP7mz4tEatqZSo5O/sjNW5P1Ret0nS9N88qG8d83OeGPFa994Z9sSsdnrK8Z/u81GLs+rGPf1Ds7w7v6/u/OuGlKY+qYTSp9D13Q4LwCGrexCRPUFh6LU54b74/p5P2y9gJGGz5vX8qi88JHCzR/ecXt8IxtXKyCt4+iXx4XHlU6L5letw6rF8fiGGXFE6TxpRiyPh6uvopTWZcGyGTHn0pdH2/vPj46Xv+rYGL/s4db1TneuV6z3N+7o5PLKkor32bJt0kWs6temUqi1LgAVpXE3xP3fqxhftf3mVW7bkiwgzsd9o7Qta88bAIBhJzs3Hh8HHVl5G+TUOOOc0nnvhsdjccu5d/mcteV8s9Z5fjEue7Sej6bfBcU5aBpXnIdWnqNWn79GPNwyfeVrumzaGfH6OaWz/QVV8+3st0Dp/P6n90WNmm5K2+T1c2JG5Tbp7m8BAHYru0GgunecPm1X/GbR5viXRTti3dhRce7p+ahuOOOgjkqnlkzbI5ZfNSauyns70+n8+ljTwqVx+mknxpSpJ8aLD18XP/ttCkcLKfi8MR69+C3xq69eXnq8JS5/7MZ49/yIC64odR8eWTXB/3pO20qMj599SMSt90e5MHPyVNx+57q4aPbzsu4Uxv7stGKel8cXD/51nFcVwBYeeOCBvKu9mfumGG9trPhB6vt+rFhXehq3b92Skh3Na1Dk1QLPe1NRgrUctr70f7tSm/au+ORXIk54RetrT7i9NCwPW1uq8C1Kx75iRFz6lSKsTWHqrvjdGSPK494U8bvF2YiaHnzwwbyrjlTNbyohnPd2pNN5AUDh6JfHpXNmlKsFLgLLLGStKA2a3U3eNjhdft/aOCkb371qbqceeVCM37C2zcWe1Q89HhtmHlFa9tFxROkEY/mStldRFi1J1X+dWhWm5tKFmZagdVH88Hv3x/iWu+HLJVg7utizfFnr+5wz8f64PrsQNTVmHTw+Njy2uHU9Fz0cy0vb6NR2K3F0vLy0nBl5idysCrNs+22oKKGbxi+PBXlJ2nQBqxwQl8eftO7+GtUjAwAwLE2bUjqz3BD33111Epud9xbn3u1LsWbnskXNLZ2cjyYb7ns8Jufj0zlsdo66Pv0mKA+78LgNsaAypF22oWX6C48b3z4Y7YqjU2i6IdZU/K7o7LdAefxJdX5zpHPxYpt0/7cAALuXIR+o/t2b94xjNu+Im1OhxTs2xHdXjYiznr93eWQ3PGdiR5ti77i8gzZTa+l4fn1s9Y/jy7dOihc/L63h/nHBhYfEHdfe0hqE3n9LXP3IIfHmlsC0NM0V7QPUdo49Ni6KpfGz+/P+1ffGz0rzeXGqDjjNM54fH6yYx/FvPD8uuvX2+EGNm7PWrOm7O7b6cl499X//uyuunhIxp/SII8uB5mtTd2ZEzJmVd3bbiHhvaV7vPTJ174qv3x4x74KK9lBLy/rxrF3x+VSK9aEofQYj4u2njSiPmzIyPnFGubOWtWufzrtq+MGH4g112kytpcN5AbAbK5eSLO7ILj+6e6Ejr3JrTkVp0GlnxEtSydLKizrZRY8eyC8QtV5EWRR33bchZhxWntvRp6QSp/dUhLerY836iPH79qSi4nSBpeM2UivfZ7bs/A73cvDberd7FuoePKtr1SWnkLpN0Fy+OFS2OhY/Vnq/1cvNuwEAGO6KWlgWVJzTV9UKs+iuuD+OjZdUtDd69HlzYkZxHt3h+Whu/EExq2V8fk5+UmvzIO2aC6kINbNz5apgtGumxuTxG2JtS+1unf0WKJ09r9sQ4yf1z28BAHYvQzxQHRvnHjAiHvj9hviXfMjbntgRqTTpF/L+4WDNbx+OO846Iy4ovvurgtA1T66LOHxqzCj3dsPz4sVnRVy3sFzqtLycY+P41J3m+civ47yiut/scWNcl025mymdhB1dUa1uerx08Yj48Zsqgs6kourel3ZQUrStEfGGMyKu/n4+78pSrWt2xe9KT5d+pXW5lfNesbo07ZRdcXC5NzN9ah6uAkC/qNWGakUw2iWrY+2GiOUL5lVcwJkX199XGtgfqkt+TpsVB43fEI8/1NENWuXqdyvXr3zn+dFxana3fD6807ZVx8fklhuuSvKwN7vAk69H+WJPCnWrq13rgooqxxYsy4dl27fWcgEAIJeVRs3P51NtMsWNk3mJ0dVPl87NsyY78vPe7JGaoahS83y0hlVrSkuoOkcdCD36LVBV1XHpUa7at7u/BQDY3QztQPVVe8ZZYyOOOXly7Lwqf5w8qjRiVLz6zaUR3fDE+p15V9/o6/nV99u47tp1Ebfe2C7YvO76+m2adlVrtb+V1f3mDn9+3JRX99v6+JvWYLfClCn1LxAuezpVMjs5pmeNpr4ipk8qPW18Ouqdh3U0r35ROtlrqXK35TEi/igf3RKkVlTd++NulFCdflo+z1eMiFhcbou1sh3V1qqEWx//VZRK7YbJk/fNu3qvL+cFwPA0o6WqrIrHeX1we3d+sWZKdnd7uTRs24tB18f96frQfXflJWunxpSJpf6nKy+qlO82L69Xqr6sVXYnfRqeLjzld/X3rO2kcrW/WZVjqV2nqLyDvxPFhauKKsfm1GsrAQAAOpKVNs3Pe0vnzXcVOWHWZEdxTlw88lKpDXs+WnlzYVd+C5TOyieNjw3rKs/nU9upxfu9MI6tuDOx734LADAUDelA9QvPGVX6At8SI69Y2+bxpVURkw4YHX+XT9cVtz++Pe/qG309v7ruvz+ui0Pii9XB5vsOiXjk4bi99J0+5YBJpe7VPWs7qyjtOr+iut+S7s7zmGOOybva+8GvH4mNMS4mH5T6nhOTx0VsXLIwsiZVa+hoXoNhxYMR/zurXO1vuareHsqrDl50Rml+i3bFiikj4oTS4Mfq1K6blUZdMyIey/uTrNRqHUcddVTe1Xt9OS8AhptUDVd1gNl3sjaQxk8uLaUkBZUbapSqTVWclc5iHs6vohx92Iw2F1W6JL/wlNp3atMWahuV1Y2VVN2Zn1Vltqx0vlZa5+hqdb8l5Xae5mTLb1/FWHU1ZyXZcgEAoHQuecc3WkqittV6nj5139Sxts45bmfnozVU1tTSn1KJ1OLmyi7+Fiifk7etBrhTXfotAMDuZggHqnvH6aUvxwee2JT3t3rbr7fHurGj4tzT8wFd8J37tuZdfaOv51dP08KlEXk1vG0ce3Zcfvi6+Nlvn8q7l8aX55e6c03/dXW84L/KVfl2LK/299pfxx2V1Qbn83xr5Tzuvy5ecMl1rW23Vjj9jA4+jNR+5y3LYubZN8T13zsnZv5hfrzhQ9/PR7bX4bwGy+pdsSLvXHFn2yp/y8FnxIL8pHHFnbvi6nJnya745Cd3xicfyntL/QtKJ3T/39EjYnpLdcC74v/ysW2mPzJi3pS8PdVkzc543+3lzlpO+aNT8q7e68t5ATDcTI0zTkoB5k/btGOaqtXq9d3di34Y199XOk05p9wWUzlcrVHyc9oZcdLMKJcOTY5+ecyZuTwWtGsPNq1XZdVm5aqAy9X/JuX2Sjtq+3T5PcXFqtK85t8fGyrahipXObY87i+tc7er+12/Jp9vac53fKOiirW85OuC1vey6O7ScvNuAACGt6mnn5SVRL2+usra1G7qhhlxUmo39ehT49jSeeqCymlK59rzKs+X656P1pJXl9tyblxSPb/eSqVmFyyPGXPKTZJ0+bdAqf8lx0Xc/72qdmRLFt1ULtFa1v3fAgDsXkbsKsm7e239+vV5V/elak674+/ePCk+cejO+NIVzfG2fFirsTH/8r3irA1bYuRnS1+IV42J+M3aOPZ7e1d055NW+NlbxscLD9kj7+u5XyzdHi/+UvcvW939yiUxe/bsvK8LVv843v3eX8eh77s83pmXHK20Zv6/xXnXToovfvWiOD5+G5+tbOM0Vdd7xUtTbbb5dOsizjo/fvXGyKaLynmmoPQTS+P0i98S/3rO/vnApGqeWUnZtKzarvjgB+P+dMWwF4499ri46qMfzfu67vrrr4+zzz477+uGh3bF5F/uikXV7aW2sSu+/ZVdcWlxl92sEbFo6q44+vYR8eO8auD/+9/WkPX/O2NE/H+LdsVjf5yXaE3L+H7Fn2Eq7fr/tVbpW/na5PJXVJaETQFrEdCOiHlnlNajdGJXb33/6WMfi8WLe3eqOmvW0fH+D3wg7+u6W265pWefAQB97uGHH46TTjopRo7szr116QLCPTH5VXk1XzWkCynXP3ZQXPj6MyIquqdmr03BZLpDvPz6bNqKdlPHH3dhvD5dvClZdNO8WBBzOqgCuJhftRkxp6VN1/I0Gyrm20a6gLNgQ8v6tA6rmmu6875yPaqnqR7fIt9ex42P++/Lp0/VpmXbo1XlNuvoQky2TZYV2yni9m9UXNwprcOFk+4pbc/xLe+/mD4Zf9yxMf6+xzv87AAG286dO+Oee+6JI444Ih8CQGd6dl6fpBsHK8PCknbnqtXn3JXn2lWvrzofnVrnHLfyHLW0wJZz8Xbn/ykc/d7jcVDN89ca655pnV+x7t36LZAts+pGxOpt0uXfAgDDU1+c00+cODHv6r3m5ua8q+fmzp0bTU1NWfeQDVT7w+wZo+LOyybEHr0ot7u99DZOu6Y5Fi7fkQ/pum4HqkPMI488Eu+f+/exY0f3t00yatSo+KeP/3Mcfvjh+ZCu63GguptZunRpfPSqj/TqM/jgFR+KQw45JB/SdQJVgMbR8wsv9LUUqP40XlL7Qk+fycNdgSrQwASqAN3nvB6ARrK7B6q+bSukEPQ133gmC0V7Ir0uvb4nYepwkILQvy/tfCmU6670mvTanoSptEpB6Nvf8Y4efwbptT0JUwGAWlI1YT2o7rdD6Y79ttUnr77jnlheq7ozAAAAALpEoFrlB4u2ZSVMU7W93ZGmT69Lr6e+U075o6yUaaq6t6vStOk16bX03vOed1JWyjRV3dtVadr0mvRaAKAPpOrC5l0fjx/8kj4uNTo1zjjn2Ij7ri/Nf1726EqVwgAAAADUp8rfDlxw9Oh4zXF7xhkH7RHPmTiyTVXAqTTqE+t3xu2Pb4/v3Le1T4LU3b3K32p33/1/ccftd8QDDzwQa9asbqmGNpWEnDJlahxzzDFx+hmn90mQqsrf2n7723vi7v+7Ox588MFYu/bpNp/B5Mn7xlFHHRWn/NEpfRKkqvIXoHGoGgyARqPKX4Duc14PQCPRhmo37G6B6kAbboHqQBKoDj6BKkDjcOEFgEYjUAXoPuf1ADQSbagCAAAAAAAADFMCVQAAAAAAAIA6BKoAAAAAAAAAdTRMoHrg+BF5F7A7mjBhQt4FwGBLbSzt2LEj7wOAwZe+l7QBCNA9zusBaCS7+zl9w7yzaeMiJo0VqsLuaOnSpTF69Oi8D4DBtvfee8fatWvzPgAYfOl7KX0/AdB1zusBaCS7+zl9wwSqfz07YuLY1CVUhd1JClPXrFkT06dPz4cAMNgmT54cf/jDH2LlypXuaAdgUKXvofR9lL6X0vcTAF3nvB6ARjBczulH7CrJu3tt/fr1eVfPfOv3u+I/fxOxYmPE8g19tlpDxt2vXJJ30ddSoPfMM8/kfQyUVM1vKpm6//77Zw8AGseWLVuyOwc3bdoUO3fuzIcCwMBKVYKlu9jThZcxY8bkQwHoKuf1AAy2vjynnzhxYt7Ve83NzXlXz82dOzeampqy7oYKVAEAAAAAAIDhp5ED1d23dVgAAAAAAACAXhKoAgAAAAAAANQhUIUh4KGHHsoeAAAAAAAADCyBKjS4FKQ+/HD5IVQFAAAAAAAYWAJVaGBFmFoQqgIAAAAAAAwsgSo0qOowtSBUBQAAAAAAGDgCVWhA9cLUglAVAAAAAABgYIzYVZJ399r69evzLmgv7R+PPPxwrF69Onbs3JEPhf41auSomDp1ahx+xBExceLEfCgAAAAAANBI+vIafnNzc97Vc3Pnzo2mpqasWwlVBkQKU391112xYuUKYSoDKu1vab9L+5+bPgAAAAAAgO4SqDIgUslUQSqDKe1/aT8EAAAAAADoDoEqAyJV8wuDzX4IAAAAAAB0l0CVAaF0Ko3AfggAAAAAAHSXQBUAAAAAAACgjhG7SvLuXlu/fn3eBW3dfPNNeVdHjogzzj8+po3Oe0s2PPa9uOWecvdJ57wqDo7H4ob5vykPaFBDZT27rvy5TFrXFDfeXtUG6eF/HOcfPy0qPrKyZ+q8/3z6WFVjXpmT4+xXHhzj876kch8o63g/6cy5556XdwEAAAAAAI1i4sSJeVfvNTc35109N3fu3Ghqasq6lVClQeQh2ZbH4oYbvpc/Hos4+FVx9kn5JDSobbGqqfjMyp/bhn0Ojleec3I+vtUR+0+KeGZDxKT9S594lRS2vvLgGLuqqXVeTatibGkfOP+MYmr7CQAAAAAAMLAEqjSICTF2dMSGNZWlGn8Tj63aFuOntA/maGS/iVuaVsW2fWbEGYfngzInx8HTItY9+nRsHj0tDm4TgB4RZxw9LUY/81jbkquP/DIWl/aB0S0BrP0EAAAAAAAYWKOuLMm7e23Lli15F7T18MMP5V31jIsZh0+PyXvuHYuWPJkPi3j6iQdb+g847JiYFNtiyjGzY/axx8TRRx8RU7Y9GE+szUaXSzi+cHYce3TluFSi8YVx1D6L4tGn0kSpStlT47C9Kvtnx4zK+bQoT3tiNr9j4sCW15TnecLBM+OoE07Mlzcz9lq0JNLo8nquj0UjDi+tz1GxTz68eF3rurRK1QSfetjUivfWOr/MSefEK089MVuP9Dh8yvZ46Imn8/d8QuzXsv5V76/N67qyvWqMO3zv2BljYo/NK8vLrLTvQXHU9LGxeWXV9ls7NQ46et/Sayre60nHxonjnolHf/Wr2DnzmNhv74rP+vDnxgkH7BlPL/5Fu88h2wceejzKS+58P+nMkUcemXcBAAAAAACNYuzYsXlX7/VFZjl//vxYuXJl1q2EKg3i4bh9USrVeHC88pWvyh6t1bxW2GdSxKJyVa+PPTM6ph39x3nJxZPj7OOnxebHyuPuWxUx7fhz4qTSfFesqyi9eNK+MXZb2/7x29bFikfKva1S+FlR/exjG2L8wS9vU+Jy9D4Ry7MqZ5ti1bbxcXB1FbePPBXrSsP3LUpiHr5/TBq9IZ6u19bnPtNi7PLivZXmd37Fezt4bGu1uqV1GT3tkNJ760z16zbX3V7ZuGx7JeXSoqmd02zc8ojx7RpJ7UxzbN5WOvjt3foZnjRlfGxb91TpE4m459H0We/b+h4mjI3RsTk2tfscqnVxPwEAAAAAAOgjAlUaxyO/jBtTgFd63JeqeZ12fBaYtWkb85nlcXseum14dlu5I0nBaLSGlQ/fvrzUVw4zH960OWLM3lmQeMTeY2Pz8tK4vL8y5GsjCz+3xbqn8jH3LI1V20bHpP1bw7ttq5ZGeXEPx6aaNzq0DXNT+6Gjn3k6f00N21bFY/nILHAcPSmmZwHub+KWG37Y8r7Te+i60THt0DzovWd+3HDjL8vvNQuSW5dXfn95+FvzvZc7e+7k2HefDbG8qM63OmxuJwXa5cC0/KgIs7uynwAAAAAAAPQRgSoN6eHbf9gSmI0/uCg5WV8WMm7bHBvy/jbueTo2ZOHkETF9UsTm5ubYHOX+vcdUBIeVulxismMPP7WupSTm+L1GV7X9WWXLptZg95FNpaUX2oaLs0rvoWtSEPtYbKgozfnKvBRttr1GT4vjiuGvPD6mjc5LlLZ77/UC446U2zrdvKn8jo44Y0aML/07uGp542fkJWabN8e2GBt7t5QAfjhuvzEvPZvaY82HVuvufgIAAAAAANBdAlUaQ2rrs6WK21ZZ6dIuyKYbPTbG5/1t/SaefmZ0jJ0wIcZGqt43lRyNGLv//jEp688nq9Qu4OuhlpKY5RKadav7TfJSs5nD9y4tPXfSITFt9IZ4LC+VeePyrm2TshSqVgST+xycleTMtte2VXFfMS5/3JhKkLZ77yl4zju7KisxvC02N6eeFGSPjg1F9cLFI61PUQo3204VpWnr6eV+AgAAAAAA0F0CVRpDVop0WhzXph3SI+KMGeMjOqomt5Ben1fxm5RLRLYGmKl64PEzZsTYvBRoCuDGTpoUUau63yQP+Fqq+M1CzTqlWTuUV/t78MExvl4J2kJLFb+lxR06LUa3adu1CDjzbVLISrJWrmcKMnOH/3Gc36aq3DRtHnLm2/vgokhnNm1ebW51uJlVAVzu7JrUdmv63PLqmeu1HdtmG7e2jdq2TdRyW68ti+/tfgIAAAAAANBNo64sybt7bcuWbtcLyjDx8MMP5V31PBmPLtoeU445KmYfe0wcfXR6TI89n26K//3F/dkUBxx2TEyK9bFoyZNZ/74HHRX7jd0cKx96PJ5Or982NZ571Ow4tvTa/cbtjFVNP4r/W5tNGk/vuV8cfsD4iPVPxENPPB0xbkYcdcDYWLfkrngin6atp+OJh/aOg2YfFSemdZk0JjY89oP4xe/TuH3joKOmx9jNK8vzKqlct+r1zJY9fVzsfHpJ/Cqfvlr2mq2bYudzTsyWN2nPDfHY//48ssU9NTKmHH5ATDsgbZN9Y9Oyp2PPSfvEjm0Pltb9yRg15Yg4YNoB5W22R3OsGjEu9tiwKB79/ePx0F4HxeyjTsy356QYuer3ccu9aR3abq+j0/qtaoof/18aV37vB55wcPm9T98Zm54ZE3tsb32/LfY9KI6aPj7GT0/zLx5pOa2f20mzZ8e+W5+Kn+fbo9XTMWa/tO77xF6LlsRTa0vrW9oH9jvh+Ip9YFKMeeaxuOGmX+SfU+f7SWeOPPLIvAsAAAAAAGgUY8e21N3Za32RWc6fPz9WrlyZdY/YVZJ19YH169fnXdDWzTfflHcNRyfH2a+cEZubflgusVnDSee8Kg6Ox+KG+R20sUqfOPfc8/IuAAAAAACgUUycODHv6r3m5qxNwl6ZO3duNDU1Zd2q/IX+lqrhbVN9LwAAAAAAAENF45RQbV4ej6zYGDvz3rZGxrjph8eMCXkvQ85wLaGalTzdZ1us6qB0aqKE6sBRQhUA6Myqxx+KdfVqBhozKY48aFreA8DQsyGWL3kqNu7Ie6uMHLd/HD5jfN4H1OJcCYD+0sglVBsiUO3wS7iSL+Qha3hX+UsjEagCAHV1eJNnJTd8AgxJqx6Ph7p2ASomHXlQuAIFVZwrAdDPVPnbgS6HqcmWdfHQkuWxIe9l6Bg1clTeBYPHfggA1NXlC4TJzti44qF4fFXeC0Dj63KYmmyJdQ89Est7fw0Odh/OlQAY5ga1hOqG5Y/EUxu79jVcSfUrQ89vFi6MFStX5H0wOKbvNz1Onj077wMABsbv49pLPh635H1tnRN//9U3xDF53+BZFY8/tC66epm9lRJMQINbPT+ufu/X4+HD3xD/fMU5/XS8WhW3XPWfEX91RZw9NR9UYdVPr4q/v+7hvK+tIy76ZFz+kgE4inYrCKowalzsf9iMcAWqQRT7c97bRr/u4z3R8d9F3P/1eNMn5uc97fXmb6P4m+vbvy/nSgAMDCVUa1oVa+uFqalq3yOPjElj8v4qOzeuLb26b6WTjTdd8hftH1fNr7usB/6rmO6quGV1PrCddAGpYn6dzHN3dfgRRygdyKBK+1/aDwH6Wq1ziGvvz0cCnZgf/9wA58YbljfXuUCYqqs7Mo6cPq7OD6ct0bxc/Tll1b97vh4P5GO6ovht1XfHz3Qhu3vrURzPr/6p4jTQdelv7b1x7SN5bzc9fF3ptQNw3rRqXb0wNYU9peN8vQtQOzbGWoeEoeGRr8ff/9fv857B1ru/i0bkXAnoV+mGmeJ3RI+O5em4W5HRFPMbhjlMG13YDt3+DTTMt+2gBar1v4hLUtW+D3VUFfAAfhmnE7KaP8J/HwtvzTvj4bjrnhq7T7rbrNbd+HXnuftKdxW84NRTsxKCglUGUtrf0n6X9r++vLsFIEkBQK0SF7d8oqc/AmB3lkqjfi2+0vL4ZFx8eGnwI3fG7/Ifvu1DtTykK36sVfx4u6Xl5sbqH3/VwV5HNz8mHdzomVdX91AHpZr642bPoSddwKj+3TM//nmY/eaBoau4AaH10bXjamVo9HBc+96OL8al0nKt3wGlx/vOyYbfsjA/Z6pxga64yFd8L7R8T/w0nzZ7dHKsaV4ezR1cX1r3UOk430FVwFs2aHqq4aTSqJX70lfnxtlp+K0LK/aFqv223bl5x+Pb3jTZ9lyi4/2wi38Xx76h3d9CnDW3ZdjlM36Uz7d6/mXtburs4LdHsb6t0zhXAhrLqnvubK19oM2xvCsqj7u5qefE5el42lA1FzSmaS+5ovy9MxA1huwGBq3K3261nVpLKsV6UN99yOlEpH11GBV/jOmk5o3PLQ8uaZn+rNJJz63za1Sfk05OyhcV2swz/UDIqyfp26o3AIAB1VJN1xFx8ScrqvKqGn7CPVXnGC3nAq1VnRbnFWe/72sxe+FfxD/fGnH2RW+Ix64rqjSrqha14nwiqTynaHeOUr1+MOCK8+Lq6n2Lc+3WfTRd8Mv2/9LfwsXHpmny1xbn2lX7fqtiHjV+TGc6qFq4p9VAtkglMw6PGRPy3uGo+FxafhO1fg6tn2Xr8ams7bGp9bP/ZBxwffEZdv3Yl1TO/4iL5sapd328NJ9iHjX2w/x4Xcyn5fhZ45ha5njKENTu77O94u+vra4cV18Wy6vGVf9dJrX+tjLFOVNxvaXGuhavLY4ltde1pOqaTRvdaju1FlWWNoy6+3P1Mb71mlyl1n2w9vhiP2p77C+0fn90vB9Oa/c3U+vvoo16fwv56BbF+JbfG20Vy6n8m7s0/rP8Xmp8R7dV8f1YzbkS0K9aj+FnnzU/bmnze7BV7fPy9se07Fh40r01vi+qp2173Gv5PdLBtZh23w8dnX80gi6cB1Z+Z6TvkE63Q/U8W76TWqfp7XZS5W87G2Lb9ryzlk6q/M1s3zYAdwhOi7P/6g2lP8+Sx5aX/uQKq+J3d6Ud4og49byXxalVd9Zn7l9YPjEr7SxtTprS3RHpzrPq4QDAkPLAwvJFjLPfV3Vx/djSSeVF6ezh4bj2pt/HtJNOy84lHn4yP5NY8WR+Qjo/FmalLYrzinNidsUPhltaTlyT+fHPxR3lNS6w1Kou7+EsTC05/LQ4wcV/GkIqsVhZGiL/MXvWq3sQUKUf0KkER17KtbS3P9mmuf70Yy4v9ZE96lwgTLZs7+ACYWfV2CU7Y3tvrtPvDqbOiIPT8yNfj3lZKZzS76grytu+dpiapFI77UvE3PKJyosc3Tj2lX7IV87/4etSmJr39FDtdVbqlt3PMW+sPF5+Lf7+rDS0K8fV9LdeHIfLx+WOrnOkv9nW74DSI7v4VnrdeT24EJkuzKX1KEr2tblm09aGbdvyrlo6qfI3sy229f5aHH0pq/mtYl/Kw9EjLnpZ+fs+vyaXLg6X99fyfvrwdT/KjuGrfvrdlmt25fGVJVxbz81b9vlsP5sf11eXNK25H3bv76KmomRV8fhkrWuTle+v/Gi3nLvyMDW9l3YX0p0rAQ2iJUeZHRfPLh9PW2qvyHX1t0R9tW4mSb9Pa/weqXctpur3RubWj3e9qtwhpu52qJR+oxXnc6XvqvJ38O69nQatyt8ho+XiwJPR8re1+t64K/3xZRcop8UJp5YvmlZW+7tq+dLs+ezZNX4YpGo9GvnOBQCgE6ti+WPp+Yg4YHo2oI0iRM1MPbF881VebU0RxCaPLS+dOxTnFaUfD20uYtS5UFhUhZPu2Cxf/ChfALrl+qr2K9Ldgml8nbsQoRFk+3FPzotbbhQozsULRX9FeDtM23YZWM+N2VkAUxmYVF6c+H38OPtRXQThX2u58aRd0ynFsa/q4nHHx75V2XPScnG5eH2PdeOCOuwm0sXK9PfbtuRdPx5Xs3OVnpX6brnWcuzschDGMNc2uCyuybV+JxUX0ZfG8tJ30+onyxd6W6/ZPTcuzo716WLwqngym7Zin89Lg7bcIJnr//0wldoqLb/qhqJieZU3KVTfXJk8/Ej+qsMPiNY/M+dKQGNpuVk9HVOL42lVFe71f0uUXteVm1ju/1H5e6C4TlIxj3QjfBud3LTV6c0su4tOtkPEnTEv/35qV9CgZHfdToMUqI6P0XvknT21x+jSXAZH8WP+iFNPzC5QtpQ8uevedicg2YXSXPHjpOXhhAUAhoFpMSO7OytdwMmD2MPPibPTXfLp3CEvsXrEAW1PLutdoCkuAGXttGbnFHl1ZZU3f5UU5ynQOIpgKi8FUlJ953E7q5dHdu9CNxRtwJRLWJVkpVg6uHt5zB69/FE0MvboqGDTMJFKuJUvShTSXeP5Bd7ic6woMV+vrZ6WY19xY2uu42NfcfH7nLiwmF9xM0uPdf2COgx1qWq3tI//eEbV8TPX7eNqHcWFtZZjRXVNXzUUf/u9MX706Lyrp0bHaFWVNpbignjLzTM1btCpqbrkdTe1u5jcT1KJn/S9c9XyeGmb91nIA+CK4dn3Y7vSQ0fEEem7sPQ3++OKwNW5EtA4fh8Lsxu5ihq7ihs1ixq9SrrxW6KeltD2wtYbzqe95NXl36VVx/a6N8t08WaW3UWnNw098nB2LSt917QpaLCbb6dBK6E6do9efhXvMTbv6mctf7DF3VzFncoVO0Vxp1jFCcq0GYdkz35sA8DuqAhJa1+UKW6+KhyTVVvzcNx104+y0qhHnPqymJ1e/8iT8ePsxP6IOPWk3saf5TvuofE9N6sOKLsAeOvHa/64Km5KrP5b6o6iCsu6JSELE0ZH7y61u9BeKC5stFbF3IXQvNd6fuwrSjB120BdUIcBUX0hs6iFo70uH1c7kY4VRbXC1/5HjRvNW24SK9atl3obBo3aIwboChTdVTSrVfLwdf/ZEggW1+SqS8ekR6qKfuoB5RiytYaXVBVkuuibQsVpcUD2HVZdJW7pMUA1v1QX5GhtMqRKS9XAlVUWtzrior+My/OmzNrVZlPiXAkYdEV1vxU3MRY1ZdQ6bvVUcdzvna7ezDJ8HHF4+fujbSnf3Xs7DVqgOn7GhOj5zUljYsKMgSmf+sBN5bC05SSmKB5eR8sFgyK5r6gfuuUCQ7s7ywCAoaYckqYTw6q7uSvai6i+o69o1/TgGdPy18+PW9KPhW60c1r8EGit9rJ49KzKPBgUU8+JS/MSSrd8orVNymL/Lm5cbNf2SqfyqvEqHuV5dHTTwrSYPK7nP4tGjps8IBdXG1rpuJdt75YfydOyu79bVLSx2lJCpt1rOtbxsa+4+F1RHW/d321FANt6o2xtg39BHfpUVgKt7fGxba1ZxYXM6vbFunpcLZdK7+rf9DFvzAOg0nqV214uaSmZXqxLXhK9tybMiAm9KB03ZvyMQashjS449g3tA/oapWOyR77Pt5RKavm7yPf7rF33GlXi5o/ul7Dp3t9FtZb1z2tIKLSrAa/4W6luQiQpnXNdmLZPy3ewcyWgUbQ221FTUZNFH/yWKG60qQxpW9rTPnhG945RndzMMmwc/oa49Iq/LN9Ie2tpW1ZeF0t20+00aIFqh1/GW9bFQw89FOvqNFjen1/E1Sdb5TsiWquOKoqHt7vLreUu+2LHeG5c3HKXXNUJXF6iVVV8ADCEVV68SRdKiu/54oLHWXOzO+DLWtsXbCkBMv2AlhusunNOUDQ10FrtZf7o4YUaGCzTXpL/+EoXLPP9t3VY2dnva60euGvS3bDtX1OrTZdK9W/23BkbVzwUD63YWOqqZeBu9GxoFTeTVh8LyzeWPDde2hKgV44/Ii4+L7/xpBMdH/taA9x6F5/TNOWAtDhmV4dG1frygjo0stZrF5lUlWp+faN8w3hnx9WqGyi6rPKaSVGysP26/H1+7OitaZPG1bkAtiXWPVQ6zte7ADVqXEx24abhtQ/oa+2358Tft9wQU2N82vfzdt1TgYi21diXrwO2ntt3pqd/F2Xtz4fy6nnzcKHW+lWuf7Vi+5SDhM7+pmtzrgT0udX3ZjV41bqBsbjWUi4539XfEh3cxHLsy8rH1ZYbaVpvJunq75Fu3czSaCred8ujT5qjLL7vSts+L6U6pLdTF4zYVZJ399r69evzrq5b9Xj94LSmMZPiyIP6/mw2fdA174BPJyQtJ1zpLq60A6QGjqtPNFL1IOUf5elEp/Ukq3hNhTbzBACGslrnEG3PBcpapms5D6h97pDaMUs3dLUOy88lKs8fUrtKRZMDScW4Yjnpos/u0ug/DIjm5fFI3YuBtYyMcdMPjxmqsMu1/91TfSysPl725bEvaTP/s94QFz/29dIxNl2geUP5x3ub15eGvy/inz8xv+V4Wev4Wb3Ojq0whK16vH5wWtOYmHTkQS3HGBj2nCsBfajlPPusufGV6htCUgnUFJrWuNZRaPNbo5g+SfM7b3n5vL/N74XWazBlFb8TSrrye6R6HRo+56n+/VQpX/eo+g3U6XYo5lnx3suvac3MerudJk6cmHf1XnNzc97Vc3Pnzo2mpqase9AD1aTLoWo/hakAAABdv1DoAiHAkNTlUFWYCjU5VwKgnzVyoDqIVf62mnbQkXHk9HrVryTpS7g0jTAVAADoLxNmxOFHHhmTOmprL93keaQLhABD0rSDSsfw/WPcqLy/hpHj9i9NI0yFmpwrATCMNUQJVQAAAAAAAGD4UkIVAAAAAAAAYAgSqAIAAAAAAADUIVAFAAAAAAAAqEOgCgAAAAAAAFCHQBUAAAAAAACgDoEqAAAAAAAAQB0CVQAAAAAAAIA6BKoAAAAAAAAAdQhUAQAAAAAAAOoQqAIAAAAAAADUIVAFAAAAAAAAqGPErpK8u9fWr1+fPU+cODF7BgAAAAAAAKinP/LF5ubmvKvn5s6dG01NTVm3EqoAAAAAAAAAdQhUAQAAAAAAAOoQqAIAAAAAAADUIVAFAAAAAAAAqEOgCgAAAAAAAFCHQBUAAAAAAACgDoEqAAAAAAAAQB0CVQAAAAAAAIA6BKoAAAAAAAAAdQhUAQAAAAAAAOoQqAIAAAAAAFDXzp078y76i23c2EbsKsm7e239+vXZ88SJE7NnAAAAAAAAhq5ly5bFxo0b45lnnsmH7P7GjBkTW7ZsyfsGxj777BPjxo2LmTNn5kOGj/7IF5ubm/Ounps7d240NTVl3QLVIeu38dlLbozr4pD44lcviuPzoT21Zv6/xXnXrovTL35L/Os5++dD+05/z39wPRU/uOq7EX/1N3HB1HwQAAAAAAAMcSlM3bp1axx00EGxxx575EMHxsKFC2P27Nl538AajGVv3749Hn/88dhzzz2HXag6FAJVVf5Cr6Qw9Utx9SN5LwAAAAAA7AZSFbSpZOpghKnDUdrGaVunba7638ajhGqFohRl2aS4/JNFicOiNGjERe+7PN55bETTf10db701Kkpctk5TKKaN1T+Od7/313HH4c+Pyw/+dVxdel3L/CMflwaddX786o3PS10t87/o4ufHo9fm49uURq1RQrVYTja+ct0611qC9PlxaGl55fdRuQ1K7r8uXvCJpXlP0rZ0bNvtV1LxfipLqL55+Zey99Zu/p2qDi9rL7/D91D9OVWsY+vndEhcFEvjutJyytvwqTqfbfswtXWbd7yuLZ/vWYfEdbembdp2PADA7mzbtm1Z1Unp7tv0c2TEiBHZD8dUpdLo0aPzqfrWcFkmAAwnzikss7cs0zJ7azgsc7iVEi0M12UPlqFQQnXUlSVZVx9If8TJ2LFjs+ehpF0YGJvjtp88Eae+8oSYHvvHC458Ir54x7poWvFsXDj1V/Gn15WmPfz5cc2bnhd7Z+HZN+Pf1uYvzTXdkb9+0yPx458sjyfWLo/bHs1Hpvk/0hS//+aSlgA0Hn0onj1yTrxgv4iV994WPyhN2/S70uvy0RHr4gdNpeW/8Ihsmb+64aFoiklxQVpGVZiaPPG7e1rm15lnl9wd1/1uc+k1y0vzLFRsgzT/K39fsS5JaX2aJ8TbTtw/C1tf/J9P5cNzpffz+32Oipcdtk/F/O/J3ldZ2gbF++lMrZKgpeXf0BTT//iPYlZpBp2+hxqhd+U6RsvnVPqcs89yUrzxjc+Nxf9S77M9LNYtuCduqxj3nBNOLs3rmU7XteXzfTTf5846Iy5P2xEAYDeV7q5du3ZtrFq1KjZs2JD1px/+6ZG6N2/eHOvWrct+8OzYsSO7GJDG9cZwWSYADCeD8V1rmZZpmV1jmbvXMgtPPvlkzJgxI+8bWJY9fPRHvljMszfmz58fK1euzLqVUM0UYV1FKcG8NGZlKc+iVGFZR6Uri/lVl0ItXtMa7BXzry7x2rKslhKUxWuq51Fe5xl5INxSKraY/vDnx01XvDSmpEEdaAmUW6ZvDTBb51mhotRtNn2N7VWp/fzbrn+nJTOL0rEV76dlnvk26vQ9lJbWdh2rPveWULobn+3U6v7SJF1Y1/afLwDA7iv9sH/66adjwoQJMX78+OzHfT3pB0+6QJAuBOy7774xadKkfEz3DJdlAsBw4pyiPcvsHstszzK7Z7gss5JSogNPCdW+kf4Oeksbqu08FUuz0oRL462XXB0vSI8UiJXcsby11OXx5z0/Ts+7T7/41TUDtxSUveCScojXzuFHxBnZa/aPQw5Pz5Pixc8rh48zZtQ6sE2Ky88rwrbnxUUXp2nWxdIV5SGVli9flz1f94l8/fPANh5ZHcuzMV1z0YXlADCt4xmnldfp0ScrS56mILQ0/6rSsHHssXFR6emOa7+UL//q+Oz95VGVTj/txJb5l7dB1zQtLH8eresXMeWcM7JlxmMrYk02pKzyPVxw4SFZV3oPa54sb6PWdSw+p3Xx6OpsVFnL59RWh59thW6t62xhKgCw+0p3Sj/11FPx7LPPxsyZM2Pq1Kkd/vhP0vg0XZo+vS69Ps2nq4bLMgFgOBku3++WWZ9ldo1l1meZQG8JVDtTGYCtWN0SIt5x570VwVgqpZjCtn+LR8+7PH711bfE5d0IC+urHZ52T1VY2Im24WmFVHozhZBXrYiLvlp6j59sDZfLnhfvrBqehbv/9du8r3dqB8611X0PdXW0nbv/2XZnXQEAdlfpR3uqpii14XPAAQfEnnvumY/pmjR9el16fZpPVy4CDJdlAsBwMly+3y2zayyzPsvsGsukX638Vjx5+mHxh+Lxd9+KZ/JRDH0NE6g+u2lTPP7Y0vjdb38bd91xe9x+24IuP9L06XXp9Wk+3VeUlkxVv6bQrOKRV9malczMS61mHvl1XFeUwFx9b/wslVpsKdlYlHjtvesWFoHkb+O6VGVsTIpDppeHVCpCvFS1bZv1/2q9qmtraw2Kn4rb7yyX6Dz0gP1jzW8fzsLklhKmFeFyG1NfGv+aLff8conMW++vaM+056YcUH5/113/45Yge83828ulcA+e3lISNKl8Dz+4vvyZpfdQzCNV+dt2G9Wo0rjQg8+2O+sKALC7Sm2MpLZPpkzp3dlPen2aT9FmSUeGyzIBYDgZLt/vltk9ltmeZXaPZe7OikJS5UetmjTXrO5uoax6fhMrKgPUV74/2kTXd74/1leO/7ff5CMYihqiDdVHlzwSy//wh7yv92YceGAcelj3ioi2tHFZpWg/tE0bmOetyNvarG57s1rermbRhmq7tj1b290s5t+uDdVq9dogrbcOXWyjs977L4fMrW20tpOvT9QbX9W+ad32S8tTd6CYPu9t0X4btlcso9hmVYptWt0ubBrX2Wfb0oZqPjh7v/t3uq7F51uzfVoAGt727dtj7dq1sXnz5nxI40s/oCZPnhx77LFHPgT6T2rjJ1Uvle6I7ivpruq99tqrbhtAw2WZjWYoHg8Tx0SAocE5Rc9ZZpll9pxllg2XZXaku+15rpn/41h+zku7cM2/c91bdp3r/4U8q0jX5r88o8gp6uvaslOg+prYnvd16qLvxIF/c3LeU582VPvGbtWG6tYtW7KSpUWYOmnS5Djo4IPjqFlHxzHPPTZ7Tv1peHek+aX5pvl31ZRz/iZuytoobZXCvyzsWv3j+GgW1B0SX0zh5NSXxpvPSlMsjbemKm1L/R+sfG36w3xfartzXfzst7270+Giiyur1i0tvwj6qqWSodXV8KZgsAthaqXTS8vLSpZmUgBYDjunnPPqNlXdpiDwi2kbPPJw3L669vbryfLr2z8uuKK6ut0UlJYDykr13kO5WuK85GyLDrZp0uln29pOa6uurysAQ9NQDA/S+qb1hv6WqpJ6+umne30ndbU0vzTfWlVVDZdlNqKheDxMHBMBGt9w+X63zN6xTMvsLcvsDw/HW1Pp0D5qDrBrKsLUdA2/TQ2VRW2aN0YqsVqzIFuPnRzT71gSB3b10YUwlcY1qCVUU+i5YUNzjB27V3a3xdi99srHtLf52Wezuyg2b342H9K58eMnxAnP66tAb2Apwdh97UvBAkD/eOKJJ/Kuoec5z3lO3gX9o/iRPnVq399Jtnr16hg5cmTsu++++ZCy4bLMRjSUj4eJYyJA43JO0XuWaZm9ZZnDY5md6X4J1cqaJFtrbeyJri27tRbJjvKUylpBu5IhdPl9p3ZTq6v6reW0f4qJ//K62Cfv7YgSqn1jtymhmqr5LcLUVAq1ozA1SeOz6UrTd1Waf1oOAAAwMJ555pkYP3583te30nzT/KsNl2UCwHAyXL7fLbP3LNMye2u4L7N/rYur39vPpVXvvyULU1tqHK2hbhOL0A2DEqg+u2lTSzW/qWTqqFGjsu7OpOm6W294Wk5a3nCWDhZFA8y1HrUaZR5QqZ3SGuvV8rjqx7EmnxQAhqqHvvWO+NtPLaj9nfb0gvj0O0vjS49P33xz1v2dxfk4GEK2bdsWqQKcMWPG5EP6Vppvmn9aTmG4LHNIqji21Tv+rfnFp8rj0/HvF7XP+tPxs94xsafjAGhsw+X73TL7hmVaZm8N52UOmLy63f7IIpoWLi39f0i8uU6J04EKU0de/qva1fze8asYc1o+EUPaoASqq1atzJ5T26idlUytlqbvbpuqxfKGkuPfWK7fuy+q+y3mVe8x6FUKp/Zfa6xXy6OjNk4rpHZc0/Sq+wWgER35us/FZ94zp+Z32pqmX8ejMSfe/tnPxbteMC4fCkPPli1b+u3HfyHNPy2nMFyWOfSsidu++u149I/fEZ/57DvizKXfjq9XB6ZPL4ivf/fROPNvSsfHv5kTj373a3Hb0/m4TGken3pH3LhsTiy78R3xt996MB+e9HQcAEPBcPl+t8y+Y5n9xzL7TyMsc6Bd94m+LkD1VDz6WOnp8Kkxozygrfuvi5/Nbp85yBBKVt4UH3jVK+ML9+b9SVeHDVODEqiuW1uuP3vCxAnZc3d193XF8gAA+l/5Qn5R4qq4kN9aQjUf/6lPlUtu/eNn4iPffbQ0xYL4/Ds/FbdVn7Ys/nbrvNL4p0tLyEp0fTseSuOLEmD5ctqMgwG2ffv2GD16dN7XP9L803IKw2WZQ87T90e6UfzME48q9RwVJ/5xxKML729z4aS4meTEWaWeWSfGmaW+hU2VU0yJM99zZcwuHR8fnfmO+Mzr0rwKPR0HwFAwXL7fLbPvWGb/scz+0wjLHBSP/DrO688qgCsde9HgFyhrRCkkvWxepAp9br5ybtycyiR2ddgwNiiB6qZNG7Pn7rSHWqm7ryuWBwDQ39b84mvxnXhtfOiz5RJX8csfVpW4yi19Tpyfpvl/fxsfevWhpQGphOp74sxJ5dGZFJb+24I49NVXxmdK0779jx+N71z57Xj6+OfHobEg7k1ntKtWRIpjY9lTWVj7+4Wlvj8+MY5Mw2CApeqjRo7s358Yaf5pOYXhsszh6qFvXRkrzi8d/+Jz7aoE7uk4ABrfcPl+t8y+Y5n9xzL7TyMsc6Bd9L68lOgbn5cP6a3949CDS0+PrI7l5QHQb/r3r7OOHTt2ZM9dbTu1WndfVywPAKC/TXnhe+Izl0R8PZUa/bcF+dAaDpke++ad9RSlt85/Ybmi4CPPeW05SF11bMw+JOK2ex+Mh+4tLeOQQ+PQpb+O3y+uLBEGA2/EiBGxc+fOvK9/pPmn5RSGyzKHq1Rd+mtmlZ/flR8LCz0dB0DjGy7f75bZdyyz/1hm/2mEZQ6Ys87PgtT+KC16fLpAEkvjy/OfKg+o66n4wVVXR3+15Tqk7HdefOyaS2NW6d/brvl4nLtfN4YNY4MSqBaBaE+Dzu6+rqfBLQBAd2VV+17565h9ZV5CtV9MiefOPjRi2b1x77KIM8//i5h9yKOx4t5UWjWvPhMGwR577BHbtm3L+/pHmn9aTmG4LBMAhpPh8v1umX3HMvuPZfafRlhm/5sUl3+yL0uk1nDs2XH54RF3XPulDoPSpv/6Ulz9SMTpF79FNcBJCku/VxWSdnXYMDUogeree4/LnjdvfjZ77q7uvq5YXkc279wZv9u0OX7evHG3e6T3ld5fPbvze69+dLYtAKB31sRTy0pPhzw/nrtvqe+pJ8qDe2hKXrXvjXl1lQ/N/3ZLYJqNW7ogblt6aEyfNiX2nxlx2y8XqO6XQTVmzJjYsmVL3tc/0vzTcgrDZZlDzr6tJekjHox7fxlx6Oxjo7KsaHGMy6ovX3xv3Fbqm3280qQAOKfoS5bZfyyz/1hm/6leZr/KSqX+TVwwNe/vN/vHBVecHxeVuq77xNXxgur2WVf/ON59ydXx1ltL3Yc/Pz54zv7l4dBNgxKoTppcbhyseX1z9txd3X1dsbyOPLh5azy9ffesGji9r/T+6tmd33u1zrYFAPTOlDjz/DkRS78dH3nnO+IjCyMOjUdjxap8dHftOyfe9Tdz4tHvXhl/W5rf5395aLzmyteWA9M8rCjC2yNPLJeGVd0vg2n06NFZ9VH9dREgzTfNPy2nMFyWOfSUjoeXvDYO/eXnSsevz8Vth7w23lBd9W7pGPeGVx8at/1buYr0Q1/9F3FmZ3WhAzAsDJfvd8vsG5Zpmb01nJfZP46IL/ZpO6ld8bx451fLoWrcemNWrW/L472/jjvS8BTwXvHSNjd5QneM2NWHLRCvX78+e544cWL2XM+zmzbFbxb+Ous+9NDDYuxee2XdXbH52Wfj0UeX5H1dc/Ls58dee++d99WWSi/u7l40oXZJ3eHw3qvV2xYA0BVPPNG7kqeD6TnPeU7eBf3j6aefztrlmTq1729DXr16dYwcOTL23bdt6jZcltmIhvLxMHFMBGhczil6zzIts7csc3gsszMLFy6M2bNn530Dq2fLTm2llqv3TS56X8/abu36sn8TK05/TWzP++q66Dtx4N+cnPd0bDC3+WDpar7YHc3NPSvUWWnu3LnR1NSUdQ9KCdUUbs448MCs+8knn+xym6hpujR9d6TldBamAgAAfWPSpEnZj5atW/u2VpA0vzTfNP9qw2WZADCcDJfvd8vsHcu0zN6yzN1RqgL48vhVKiVbevR/e6knx/Q7lsTEy1+U91d7UYy5YUmXw1Qa16AEqsmhhx0e48dPyNpDffyxx7KSpx1J47PputF+app/Ws7QtybunvexmPu91P7QMLT4uzH3Y/Pi7nLzcbWtuT2+/LHSNsoenUwLAEC/Ke54XrOmb0/I0vzSfNP8qw2XZQLAcDJcvt8ts3cs0zJ7yzLpK/uc/+U48I4lNR5fjqn75RMxpA3qX8/RxxzTEqqmanyfXL48Nm58pqXEanpO/Wl4Gt/dMDXNn+FgTdz93QWxeMqc+OAHPhB/ffSa+M6878Zj+VgAAAZWuus5tc3TVxcB0nzS/Dq6m3q4LBMAhpPh8v1umT1jma0ss2csE+iOUVeW5N29tiVvLHns2LHZc2dG7bFHTN9//9ixY3ts2LAhNm/enNWTvGbN6li9alX2nPrT8O5I1fwefcxzs/l31dIt2/Ku9h773sfiYzf8Mub/8pfxxMjnxkkH7R0bbp8XH7puYUx67uw48InvxtwvfD+27ndmHDXi9vjyZ66L/ylNm6bPhk1NJUw/E599fGVsveH78aU0bvXImHTbdfHZn6TpVsZRZ5bWN5/n1tUL40s3/KQ0/IHy/Pd+NpYvXBi/H/fceMkxU/Jlp/FpPtOzYV1xyJg98662OnrvEQ/GjR+bV17nlvXJh2XLjvJ7WzgyTp19UDxVsa3mP1AeNiaVMP1CaVtUvq+RS+Oz130/m668TZfl86zcRvl7W/NAaV7PxnNnVyy7zfrsHQfOPjNekpZVWuNRTz8QCx7bO04pbdN6XxH1tgUAdEWqKmf79k5bx2g46Rxt3DjtiDMw9i6do61bty62bduWdfdU+vGffg/sX/rdkC4CdGS4LLORDNXjYeKYCDA0DJfvd8vsHstszzK7xzK7LjXDOGPGjLxvYFn28NHdfLErinn2xvz582PlypVZd0OU707V8p48+/nxnIMOykqWjho1Kh/TNWn69Lr0+jSfvqzmN4WX/76qXPLx45fOiVgwL25cHDH+jBfFnFgT3/nuvPjy9Q9GHP3qOH9WuaRkzLk0Pp6VlCxN/ovbY0M+r1gUcVxp+AfnTCl1L4iVLyzPc1Y8GLfcXtxtsiZW7Pfq/PVp/hWvTxZ/Nz66YEr8dVqfD7w65iz6bny55bV9LQXB340V+fv5YOntl0t+HhVzsvdQWnap/ztrpsRrXn1GjC+t278vOqq8bul9rVkQC0rbqqx4X6V1Ttvt/v3z0qSlt7Tg562lSfNtlL2+NP+0rVvVW58Ka26Pby8obY8p+0f3mtYGgK6bPHlyn57gDYS0vmm9YaCkqqQOOOCA7AJA+jHY3TaA0vTpden1aT5dqZpquCyzkQzF42HimAgwdAyX73fL7BrLrM8yu8YygZ4asask7+61VJo0mThxYvY8lPy8eWPeVSkFePPiO1V55aw5l8abz5hSbtszhamRQsRXx8Hl0VkI+9EU6iWpGtpLj45FaT7TXh0ff9VR+fiI11x6aZwyJZW4LIeEr40UlhbDi/mk/ldHfLf8+r8uTfPvi8qzbnF0eb6dedGE2ndf137vJald0nkLok2mGVPy9WvdNi3bI1N+P6XVzsy58ANxfmmd516/ps37XZCvc/k9poD4+LivYnjLfFL/c5vKr3/dsdH0rXrrk7pbl50td1YaVlu9bQEAQN9Ld1Y//fTTMWHChBg/fnyMGZPqFakt3UGaaq9pbm7O2vjpabVUw2WZADCcOKdozzK7xzLbs8zuGS7LrLRw4cKYPXt23jewLHv46I98Mf0d9NbcuXOjqakp6x7UKn8bSe1qb/OqdveeEx9815/H+WeeGS8pPVKVv8mGxb+MBY+V23U9uKIq3K8/c0o2/XGrfxl3bzo45syeGqvTfPIqe7c+sbD0usirsF0TD/3ygdh48Ow4NlJVtcXwqJjuuREPlF9/Smmau1enAPfSeE2+Pv1W5e+zT8Q9Cx+LqXMujb//8z8pL+vM8rpFLIvf/uSBrHTomr0OydYhhaOpyuKDL/xA/PWZI+OJ0mv3OebMOKq0zq1V9pbf72NTK7dFqp53eqysGJ7C7Jbppq0sv/7Y/WLl/fXWpzVMTQHvn57UcTUIqvwFABg46fdB+lGUfi+sXbs2uyCQqp1K/emxadOm7IdOqo5q48aN2QWCVCXVXnvtlc+h+4bLMgFgOHFOYZmW2TWWaZm9XWalVNJVtbsDazCXPVjSvpyk/b2vFPPsjYar8rdxTYmjj50Sseb+WJQKnKYSqR+bF3dnhU8fjAWpFOrRc+I1U/KqedesihWlMbOOPTrGx5pYuSpN111roilbWMTTK0vPU46Noyvy0oOfWy69eV8qpplKkH7sY1XV4vahKUfH8aVlL75/UVbtcGpLdu68chXEG27/eSxIpUPnlNYnr5o3W984Ko5LJUNXP1VVkrSLFjWVq/DNt+Wc7P3mJtVfn8e+1xqmtpaWBQCgUaQqptId0gcddFD2w3CfffZpaeojPaf+NDyNT9P1RZVUw2WZADCcDJfvd8u0zN6yTMvsCzt37szmvX379nwI/S1t67TN07ansfTNX9VubPwZry4HpvM+llXvO2vOq7PqZcsB3lHx1686I0554VERaxbEtxcdHWdnbYLOy4LXpihNuOapeDqfV9dMiekrU3D7sfj3RXnbpPmYzKxXl9tmvT6FiQticdZ2az6uz02JU15dbgv1o5Xrk7dTmm2LM15U2j5pfb4bMafcHuy/l6ad+4vS+NIcVqwuh8NdVnpv96XX13xvddYnBcx5NcjlbV96/ceq2lYFAKBhjB49OvuBmKqfSu1YpufUn4b3l+GyTAAYTobL97tlWmZvWaZl9lQKZseNGxePP/64UHUApG2ctnXa5n0VitN3tKGaq9uO6ABq27ZqPrAPdbsN1QHVtm3V/qYNVQAAAAAA6NyyZcuy6oSfeeaZfMjuL1Wd3BdVxnZHCsZTmDpz5sx8yPAxFNpQFajmBKqDTaAKAAAAAACNKFVBq9Rk/xrO21igOoQ0RqjYvxo7UB1YAlUAAAAAAIDBNxQCVbcTAAAAAAAAANQhUM3tu8eovGv31NH7293fe7Xh9n4BAAAAAADoOYFq7qixe+62QVt6X+n91bM7v/dqnW0LAAAAAAAAqKQNVQAAAAAAAGBQaEMVAAAAAAAAYAgTqAIAAAAAAADUIVAFAAAAAAAAqEOgCgAAAAAAAFCHQBUAAAAAAACgDoEqAAAAAAAAQB0jdpXk3b22fv36vAsAAAAAAACgayZOnJh39V5zc3Pe1XNz586NpqamrFsJVQAAAAAAAIA6BKoAAAAAAAAAdQhUAQAAAAAAAOoQqAIAAAAAAADUIVAFAAAAAAAAqEOgCgAAAAAAAFCHQBUAAAAAAACgDoEqAAAAAAAAQB0CVQAAAAAAAIA6BKoAAAAAAAAAdQhUAQAAAAAAAOoQqAIAAAAAAADUIVAFAAAAAAAAqEOgCgAAAAAAAFCHQBUAAAAAAACgDoEqAAAAAAAAQB0CVQAAAAAAAIA6BKoAAAAAAAAAdQhUAQAAAAAAAOoQqAIAAAAAAADUMWJXSd4NAAAAAAAAMKQ1NzfnXT03d+7caGpqyrqVUAUAAAAAAACoQ6AKAAAAAAAAUIdAFQAAAAAAAKAOgSoAAAAAAABAHQJVAAAAAAAAgDoEqgAAAAAAAAB1CFQBAAAAAAAA6hCoAgAAAAAAANQhUAUAAAAAAACoQ6AKAAAAAAAAUIdAFQAAAAAAAKAOgSoAAAAAAABAHQJVAAAAAAAAgDoEqgAAAAAAAAB1CFQBAAAAAAAA6hixqyTv7hPPPPNM9ti5c2ds3rw5H7p7e92XHsy7Bte33nJU3jVw9thjj9i+fXveNzDGjBkTo0aNinHjxsX48ePzoQAAAAAAABDR3Nycd/Xc3Llzo6mpKevu00B1w4YNWZi69957x8SJE/OhA2fJkiVx2GGH5X0D5/mX/yjvGly/vvpledfAGaxtvn79+ti4cWNMmDAh9tlnn3woAAAAAAAAw11fB6p9WuVvCrgGK0xleEn7WCqhmgJ8AAAAAAAA6C99Gqju2LFDmMqASftaqloaAAAAAAAA+kufBqpbtmzJu2BgDJd2egEAAAAAABgcfRqoAgAAAAAAMDw1XfPKuPBVFY+5N8WKfFyy4sa57Yb1h2w9rvld3tc/svdSeo9fuDcf0KnfxRdqbJPuWRE3zy2277wot+5ZSzFdV6Zp/6j/nrrwHlbeFB+oml9/fxYDQaAKAAAAAABAr6QQ8x/iI3H9925oeXz4sHnxVx2Gev3j+MtKy7/shLyvr5WDyL/64uK8vwvunRcXvupDcXPe22MrF8aCB8+LD2fb99I4Ph/cRhZoXhZfeDDv78S5V7Z+XtnjmktjyZW1Q9UVN14XN7/svDj3wXnxg5rj58aFl/0i5lxTOc9r4m1LPjQgQXp/EqgCAAAAAADQC7+Lu34Uce6pbUPM4y/7SJwbN8VdbcK3ZfGDipKRH7ixbcxWlPwsP4owthxiVk7bvrRrKj1Znr6yhGrq/sCNN5VLVuaPNmFhmxKV8+LmDkvRpmWUw8pZR83Kh3UsW88rb4ooTd+1V+SlQPNHy3tOoexl82JxaXv+Q+XwSi3TlJZ1VD6su/Y7Lz525Xlx85XVQfiK+M2CxaXP+NI49WURN99VVeq0tB0//cWIt13z8Th3v3xYZnqc+/HSfvDgL+I3K/NBVe9xKJRgFagCAAAAAADQC9Nj5lERN/93dRB5QrztezfE207Me5MHb4r487z04pXnxeIvfipuzoO2FD7+1RcPz0tg3hD/8dZH4h+ykHR6nDxnVixeVsy9HO7Fg8uiJaO79664+WWn1iy1ufiLv4iZeanJ/3jrrIqw8HfxhcvmRbz1mvL6XDMzFnRa8rRcQvRdc/LeLpiV5v/xi+KwvL++FDR+KJYU6/O9j8RhX7ysHJ6eeGlWenRWvvyPnT89f02Vl6VSwu+JbqxeeyeeGufGI7GsZeOW5KVjTy19lsefel7Ej+5qE7iuuPsXsfhlF1WFqYW0HxRBawrHK99juQRrzYC4gQhUAQAAAAAA6IWiFGKq4re15GHNtjiPujQuKALWLLhbHMueTD2/ix98cXGce2VrVbbTz39PvO2om+K/b1wR0095YcxqCfFWxLIHz4tzX9Za+rXprpvalZBtURH0ZfMpwsIUwpbW511FOLnfefHnLyt31paCwTpV7dYx/fyP1w8/q2RV6lauT1peFjp/v6q0aB0pdO2Tqo5TQF58LmVN35sXi4vA+sRXtHwuhZXLFsesmV17n22lfaeDgLhBCFQBAAAAAADopXJp1HJJz1SSMuLmK1OwWl11bB0rl8WS0qtmHpD3Z6bHzKJY534z47DKIPRlp8YFM2fFkqzUaqpyuFx6sjtWLHsk4rCZpaW02q80z57KqhpuCZS7+L4rpFCyen3igJnZthxcafvOire9qghr8xLDCxZWlUiuVK6muXV7FNUUT49z/zyFxJeVhw+RtlUFqgAAAAAAAPSd1A5nUZ1rVUnGnjshTn3Z4lhw94osCE2lIVNp00ihXgpj61T3S0+kEsCt4XZWcjYWxxcuaw1H/ypVjfzgvPhBXkI4BdGtVTIn5ZKnLdX6VrbpmkrSFsF7Uaq5wdtRFag2hEPiP654WXz7wrwXAAAAAABgqLh3XtQukVkuYdo2aKsjK4HatprZLNhbkneWpLY7Fy9bGL9ZEDHnlOnl1zy4LH5z9y/isHrV/XZg+szDI5Ysa1NCMisl2kPHX1YEiOnRvaqBk6x0bNX6xJPLSltlgKUSwHF4zMzbPE3t1WbtwLa8t/Qoh6Q331UOQstVMl/X0h5ulxTB+5Xt22RtNALVQZfC1KPjlLF5LwAAAAAAwFCSt6n5D9XVt668Kf67TVWxHTkhLnjrrLj5ytZgdsWNn4ovPHhe/HnRvmaq/vZH80rDirAvtfV5U3zhi4d3u7rfTGrD9cF58emiBG22vuXOwTD9/Ivark/8Lr5w5U0x662vGLjSt6Vt8IHSMlvasl25MBY8OKscYLdRrrq3JQjd77x411sjvnDZ3HahatM1l5U+s7yntIekqoDL1f+WpfZvo8FLGAtUB9HFbzk7fn310XHKhmfi0XwYAAAAAADA0FKu3vXDh+XVtxaPy5bFn3/v43FuFn52bvr5H4//eOsj8Q/56//qi4fHhytLeu43O+akqmNbwrdyW55x1Mzo4iKqnBBvu+bSiKI9z9L6znlraX7V7ZgOmNQO7UfisGJ9XvWhWPLWa+JjRaDcD8rt3FY8LvtFzLnmhnhbHlA3fW9eLD7qhXFyrQ2cAulordI5fX7XX/PCWFBRNXB6/MOSS+M/vndD/j5K+8rfVWzzYvxl3S9hPJBG7CrJu3ttyZIlcdhhRevA3bEybv2XT8VP9r84/umiiGvff23EG/4pLj42H91FPV9+yf3Xxvu/HnHxP10cx+WDuur5l/fsdoWL33JKHPqlu+Oq0hK/ffXMiIU/itden4/sgV9f/bK8q2tW3vKp+NRvnxfv+buzenig6dk2b13ucXFf6XP/7fPeE+85u2dr0KvPHAAAAAAAoMKKG+fGXy27KK5v8ICPjjU3N+ddPTd37txoaiqXl26IEqorb7k2fhJ/Eu+5aL+49V+ujZUveU+3w9TeuS+u/frK+JO/636Y2hvXZmHq4Nnv7NJ23v8nce0t3anQuveK5X7qupVxVmmb7/fTT8W19+cjAQAAAAAABkK7tl9/Fz/44uI4twftsbJ7G/xA9f5r41M/jfiTN54VkQerF/ewtGJP3XddCnEvjrOm5QOGkeMuGpxAMy33uKZrS8s9Li5+w3Fx39evjfvycQAAAAAAAP3uxEvjwy+7qaWK4VTFblzZWt0tFAY9UF35VFE6cmXc99uBLSlZtrK0DnnnsJUC7MHY9lH6zIsY9b74rVKqAAAAAADAADr+shvi+u+1PoSp1DLogWqq/vU9L4n4yX/dF8f93XviT2Kgq6DdL6929tq4dVU+aBgpSudefOzAlwq+7/i8zdyvlz77HrSZCwAAAAAAAP2tIdpQ3e/si7MgdfDa1EzVzu4XP/mX4VXt7MpbStv5qYGvYrlY7uC1mQsAAAAAAABdM2JXSd7da0uWLInDDjss7xt4g7X851/+o7yrp46Lb189M2Lhj+K11+eDeuDXV78s7xo4w/UzBwAAAAAAoDE1NzfnXT03d+7caGpqyrobooQq98VrL+9dmAoAAAAAAAD0PYEqAAAAAAAAQB0CVQAAAAAAAIA6BKoAAAAAAAAAdQhUAQAAAAAAAOoQqAIAAAAAAADUIVAFAAAAAAAAqEOgCgAAAAAAAFBHnwaqY8eOzbtgYIwZMybvAgAAAAAAgL7Xp4HqyJEjY/369Xkf9K+0r40aNSrvAwAAAAAAgL7Xp4HqPvvsE88++6xQlX6X9rFNmzbFuHHj8iEAAAAAAADQ90bsKsm7+8SGDRti48aNsWPHjtiyZUs+dPf2ui89mHcNrm+95ai8a+DssccesX379rxvYKSqpVNp6BTgpwcAAAAAAAAUmpub866emzt3bjQ1NWXdfR6oAgAAAAAAAAyWvg5U+7TKXwAAAAAAAIDdiUAVAAAAAAAAoA6BKgAAAAAAAEAdAlUAAAAAAACAOgSqAAAAAAAAAHUIVAEAAAAAAADqEKgCAAAAAAAA1CFQBQAAAAAAAKhDoAoAAAAAAABQh0AVAAAAAAAAoA6BKgAAAAAAAEAdAlUAAAAAAACAOgSqAAAAAAAAAHUIVAEAAAAAAADqEKgCAAAAAAAA1CFQBQAAAAAAAKhDoAoAAAAAAABQh0AVAAAAAAAAoA6BKgAAAAAAAEAdAlUAAAAAAACAOgSqAAAAAAAAAHUIVAEAAAAAAADqEKgCAAAAAAAA1CFQBQAAAAAAAKhDoAoAAAAAAABQh0AVAAAAAAAAoA6BKgAAAAAAAEAdAlUAAAAAAACAOgSqAAAAAAAAAHUIVAEAAAAAAADqEKgCAAAAAAAA1CFQBQAAAAAAAKhDoAoAAAAAAABQh0AVAAAAAAAAoA6BKgAAAAAAAEAdAlUAAAAAAACAOgSqAAAAAAAAAHUIVAEAAAAAAADqEKgCAAAAAAAA1CFQBQAAAAAAAKhDoAoAAAAAAABQh0AVAAAAAAAAoA6BKgAAAAAAAEAdAlUAAAAAAACAOgSqAAAAAAAAAHUIVAEAAAAAAADqEKgCAAAAAAAA1CFQBQAAAAAAAKhDoAoAAAAAAABQh0AVAAAAAAAAoA6BKgAAAAAAAEAdAlUAAAAAAACAOgSqAAAAAAAAAHUIVAEAAAAAAADqEKgCAAAAAAAA1CFQBQAAAAAAAKhDoAoAAAAAAABQh0AVAAAAAAAAoA6BKgAAAAAAAEAdAlUAAAAAAACAOgSqAAAAAAAAAHUIVAEAAAAAAADqEKgCAAAAAAAA1CFQBQAAAAAAAKhDoAoAAAAAAABQh0AVAAAAAAAAoA6BKgAAAAAAAEAdAlUAAAAAAACAOgSqAAAAAAAAAHUIVAEAAAAAAADqEKgCAAAAAAAA1CFQBQAAAAAAAKhDoAoAAAAAAABQh0AVAAAAAAAAoA6BKgAAAAAAAEAdAlUAAAAAAACAOgSqAAAAAAAAAHUIVAEAAAAAAADqEKgCAAAAAAAA1CFQBQAAAAAAAKhDoAoAAAAAAABQh0AVAAAAAAAAoA6BKgAAAAAAAEAdAlUAAAAAAACAOgSqAAAAAAAAAHUIVAEAAAAAAADqEKgCAAAAAAAA1CFQBQAAAAAAAKhDoAoAAAAAAABQh0AVAAAAAAAAoA6BKgAAAAAAAEAdAlUAAAAAAACAOgSqAAAAAAAAAHUIVAEAAAAAAADqEKgCAAAAAAAA1CFQBQAAAAAAAKhDoAoAAAAAAABQh0AVAAAAAAAAoA6BKgAAAAAAAEAdAlUAAAAAAACAOgSqAAAAAAAAAHUIVAEAAAAAAADqEKgCAAAAAAAA1CFQBQAAAAAAAKhDoAoAAAAAAABQh0AVAAAAAAAAoA6BKgAAAAAAAEAdAlUAAAAAAACAOgSqAAAAAAAAAHUIVAEAAAAAAADqEKgCAAAAAAAA1CFQBQAAAACA/7+9+4u1q7rvBL4A0yhgmwQuaGKBIZmGXIoZhYybKAEZWilRFArSEJQ2zkvbh3GmM6rUh4w7iqqpVI1UqQ+VRlUav8zDZIZ0GEAqUUKnSWUHGdL8gdCxqW/NNAnYcRr7hsQ2phBsmP3be69z9jn3/O65dkjjJp+PtX32n7XXXnvtvc8198s6BwASAlUAAAAAAACAhEAVAAAAAAAAICFQBQAAAAAAAEgIVAEAAAAAAAASAlUAAAAAAACAhEAVAAAAAAAAICFQBQAAAAAAAEgIVAEAAAAAAAASAlUAAAAAAACAhEAVAAAAAAAAICFQBQAAAAAAAEgIVAEAAAAAAAASAlUAAAAAAACAhEAVAAAAAAAAICFQBQAAAAAAAEgIVAEAAAAAAAASAlUAAAAAAACAhEAVAAAAAAAAICFQBQAAAAAAAEgIVAEAAAAAAAASAlUAAAAAAACAhEAVAAAAAAAAICFQBQAAAAAAAEgIVAEAAAAAAAASAlUAAAAAAACAhEAVAAAAAAAAICFQBQAAAAAAAEgIVAEAAAAAAAASAlUAAAAAAACAhEAVAAAAAAAAICFQBQAAAAAAAEgIVAEAAAAAAAASAlUAAAAAAACAhEAVAAAAAAAAICFQBQAAAAAAAEgIVAEAAAAAAAASAlUAAAAAAACAhEAVAAAAAAAAICFQBQAAAAAAAEgIVAEAAAAAAAASAlUAAAAAAACAhEAVAAAAAAAAICFQBQAAAAAAAEgIVAEAAAAAAAASAlUAAAAAAACAhEAVAAAAAAAAICFQBQAAAAAAAEgIVAEAAAAAAAASAlUAAAAAAACAhEAVAAAAAAAAICFQBQAAAAAAAEgIVAEAAAAAAAASAlUAAAAAAACAhEAVAAAAAAAAICFQBQAAAAAAAEgIVAEAAAAAAAASAlUAAAAAAACAhEAVAAAAAAAAICFQBQAAAAAAAEgIVAEAAAAAAAASAlUAAAAAAACAhEAVAAAAAAAAICFQBQAAAAAAAEgIVAEAAAAAAAASAlUAAAAAAACAhEAVAAAAAAAAICFQBQAAAAAAAEgIVAEAAAAAAAASAlUAAAAAAACAhEAVAAAAAAAAICFQBQAAAAAAAEgIVAEAAAAAAAASAlUAAAAAAACAhEAVAAAAAAAAICFQBQAAAAAAAEgIVAEAAAAAAAASAlUAAAAAAACAhEAVAAAAAAAAICFQBQAAAAAAAEgIVAEAAAAAAAASAlUAAAAAAACAhEAVAAAAAAAAICFQBQAAAAAAAEgIVAEAAAAAAAASAlUAAAAAAACAhEAVAAAAAAAAICFQBQAAAAAAAEgIVAEAAAAAAAASAlUAAAAAAACAhEAVAAAAAAAAICFQBQAAAAAAAEgIVAEAAAAAAAASAlUAAAAAAACAhEAVAAAAAAAAICFQBQAAAAAAAEgIVAEAAAAAAAASAlUAAAAAAACAhEAVAAAAAAAAICFQBQAAAAAAAEgIVAEAAAAAAAASAlUAAAAAAACAhEAVAAAAAAAAICFQBQAAAAAAAEgIVAEAAAAAAAASAlUAAAAAAACAhEAVAAAAAAAAICFQBQAAAAAAAEgIVAEAAAAAAAASAlUAAAAAAACAhEAVAAAAAAAAICFQBQAAAAAAAEgIVAEAAAAAAAASAlUAAAAAAACAhEAVAAAAAAAAICFQBQAAAAAAAEgIVAEAAAAAAAASAlUAAAAAAACAhEAVAAAAAAAAICFQBQAAAAAAAEgIVAEAAAAAAAASAlUAAAAAAACAhEAVAAAAAAAAICFQBQAAAAAAAEgIVAEAAAAAAAASAlUAAAAAAACAhEAVAAAAAAAAICFQBQAAAAAAAEgIVAEAAAAAAAASAlUAAAAAAACAhEAVAAAAAAAAICFQBQAAAAAAAEgIVAEAAAAAAAASAlUAAAAAAACAhEAVAAAAAAAAICFQBQAAAAAAAEgIVAEAAAAAAAASAlUAAAAAAACAhEAVAAAAAAAAICFQBQAAAAAAAEgIVAEAAAAAAAASAlUAAAAAAACAhEAVAAAAAAAAICFQBQAAAAAAAEgIVAEAAAAAAAASAlUAAAAAAACAhEAVAAAAAAAAICFQBQAAAAAAAEgIVAEAAAAAAAASAlUAAAAAAACAhEAVAAAAAAAAICFQBQAAAAAAAEgIVAEAAAAAAAASAlUAAAAAAACAhEAVAAAAAAAAICFQBQAAAAAAAEgIVAEAAAAAAAASAlUAAAAAAACAhEAVAAAAAAAAICFQBQAAAAAAAEgIVAEAAAAAAAASAlUAAAAAAACAhEAVAAAAAAAAICFQBQAAAAAAAEgIVAEAAAAAAAASAlUAAAAAAACAhEAVAAAAAAAAICFQBQAAAAAAAEgIVAEAAAAAAAASAlUAAAAAAACAhEAVAAAAAAAAICFQBQAAAAAAAEgIVAEAAAAAAAASAlUAAAAAAACAhEAVAAAAAAAAICFQBQAAAAAAAEgIVAEAAAAAAAASAlUAAAAAAACAhEAVAAAAAAAAICFQBQAAAAAAAEgIVAEAAAAAAAASAlUAAAAAAACAhEAVAAAAAAAAICFQBQAAAAAAAEgIVAEAAAAAAAASAlUAAAAAAACAhEAVAAAAAAAAICFQBQAAAAAAAEgIVAEAAAAAAAASAlUAAAAAAACAhEAVAAAAAAAAICFQBQAAAAAAAEgIVAEAAAAAAAASAlUAAAAAAACAhEAVAAAAAAAAICFQBQAAAAAAAEgIVAEAAAAAAAASAlUAAAAAAACAhEAVAAAAAAAAICFQBQAAAAAAAEgIVAEAAAAAAAASAlUAAAAAAACAhEAVAAAAAAAAICFQBQAAAAAAAEgIVAEAAAAAAAASAlUAAAAAAACAhEAVAAAAAAAAICFQBQAAAAAAAEgIVAEAAAAAAAASAlUAAAAAAACAhEAVAAAAAAAAICFQBQAAAAAAAEgIVAEAAAAAAAASAlUAAAAAAACAhEAVAAAAAAAAICFQBQAAAAAAAEgIVAEAAAAAAAASAlUAAAAAAACAhEAVAAAAAAAAICFQBQAAAAAAAEgIVAEAAAAAAAASAlUAAAAAAACAhEAVAAAAAAAAICFQBQAAAAAAAEgIVAEAAAAAAAASAlUAAAAAAACAhEAVAAAAAAAAICFQBQAAAAAAAEgIVAEAAAAAAAASAlUAAAAAAACAhEAVAAAAAAAAICFQBQAAAAAAAEgIVAEAAAAAAAASAlUAAAAAAACAhEAVAAAAAAAAICFQBQAAAAAAAEgIVAEAAAAAAAASAlUAAAAAAACAhEAVAAAAAAAAICFQBQAAAAAAAEgIVAEAAAAAAAASAlUAAAAAAACAhEAVAAAAAAAAICFQBQAAAAAAAEgIVAEAAAAAAAASAlUAAAAAAACAhEAVAAAAAAAAICFQBQAAAAAAAEgIVAEAAAAAAAASAlUAAAAAAACAhEAVAAAAAAAAICFQBQAAAAAAAEgIVAEAAAAAAAASAlUAAAAAAACAhEAVAAAAAAAAICFQBQAAAAAAAEgIVAEAAAAAAAASAlUAAAAAAACAhEAVAAAAAAAAICFQBQAAAAAAAEgIVAEAAAAAAAASAlUAAAAAAACAhEAVAAAAAAAAICFQBQAAAAAAAEgIVAEAAAAAAAASAlUAAAAAAACAhEAVAAAAAAAAICFQBQAAAAAAAEgIVAEAAAAAAAASAlUAAAAAAACAhEAVAAAAAAAAICFQBQAAAAAAAEgIVAEAAAAAAAASAlUAAAAAAACAhEAVAAAAAAAAICFQBQAAAAAAAEgIVAEAAAAAAAASAlUAAAAAAACAhEAVAAAAAAAAICFQBQAAAAAAAEgIVAEAAAAAAAASAlUAAAAAAACAhEAVAAAAAAAAICFQBQAAAAAAAEgIVAEAAAAAAAASAlUAAAAAAACAhEAVAAAAAAAAICFQBQAAAAAAAEgIVAEAAAAAAAASAlUAAAAAAACAhEAVAAAAAAAAICFQBQAAAAAAAEgIVAEAAAAAAAASAlUAAAAAAACAhEAVAAAAAAAAICFQBQAAAAAAAEgIVAEAAAAAAAASAlUAAAAAAACAhEAVAAAAAAAAICFQBQAAAAAAAEgIVAEAAAAAAAASAlUAAAAAAACAhEAVAAAAAAAAICFQBQAAAAAAAEgIVAEAAAAAAAASAlUAAAAAAACAhEAVAAAAAAAAICFQBQAAAAAAAEgIVAEAAAAAAAASAlUAAAAAAACAhEAVAAAAAAAAICFQBQAAAAAAAEgIVAEAAAAAAAASAlUAAAAAAACAhEAVAAAAAAAAICFQBQAAAAAAAEgIVAEAAAAAAAASAlUAAAAAAACAhEAVAAAAAAAAICFQBQAAAAAAAEgIVAEAAAAAAAASAlUAAAAAAACAhEAVAAAAAAAAICFQBQAAAAAAAEgIVAEAAAAAAAASAlUAAAAAAACAhEAVAAAAAAAAICFQBQAAAAAAAEgIVAEAAAAAAAASAlUAAAAAAACAhEAVAAAAAAAAICFQBQAAAAAAAEgIVAEAAAAAAAASAlUAAAAAAACAhEAVAAAAAAAAICFQBQAAAAAAAEgIVAEAAAAAAAASAlUAAAAAAACAhEAVAAAAAAAAICFQBQAAAAAAAEgIVAEAAAAAAAASAlUAAAAAAACAhEAVAAAAAAAAICFQBQAAAAAAAEgIVAEAAAAAAAASAlUAAAAAAACAhEAVAAAAAAAAICFQBQAAAAAAAEgIVAEAAAAAAAASAlUAAAAAAACAhEAVAAAAAAAAICFQBQAAAAAAAEgIVAEAAAAAAAASAlUAAAAAAACAhEAVAAAAAAAAICFQBQAAAAAAAEgIVAEAAAAAAAASAlUAAAAAAACAhEAVAAAAAAAAICFQBQAAAAAAAEgIVAEAAAAAAAASAlUAAAAAAACAhEAVAAAAAAAAICFQBQAAAAAAAEgIVAEAAAAAAAASAlUAAAAAAACAhEAVAAAAAAAAICFQBQAAAAAAAEgIVAEAAAAAAAASAlUAAAAAAACAhEAVAAAAAAAAICFQBQAAAAAAAEgIVAEAAAAAAAASAlUAAAAAAACAhEAVAAAAAAAAICFQBQAAAAAAAEgIVAEAAAAAAAASAlUAAAAAAACAhEAVAAAAAAAAICFQBQAAAAAAAEgIVAEAAAAAAAASAlUAAAAAAACAhEAVAAAAAAAAICFQBQAAAAAAAEgIVAEAAAAAAAASAlUAAAAAAACAhEAVAAAAAAAAICFQBQAAAAAAAEgIVAEAAAAAAAASAlUAAAAAAACAhEAVAAAAAAAAICFQBQAAAAAAAEgIVAEAAAAAAAASF5w6derVfh4AAAAAAADgn7XTp0/3c+du586dZd++fe28EaoAAAAAAAAACYEqAAAAAAAAQEKgCgAAAAAAAJAQqAIAAAAAAAAkBKoAAAAAAAAACYEqAAAAAAAAQEKgCgAAAAAAAJAQqAIAAAAAAAAkBKoAAAAAAAAACYEqAAAAAAAAQEKgCgAAAAAAAJAQqAIAAAAAAAAkBKoAAAAAAAAACYEqAAAAAAAAQOKCU6dOvdrP/+QceKjseuT5cuPd28utV/brBpY++8nyxXJ72XHHYr/mR7f86L3lgWc2lw9uv7Us9Ot+MvaXP/2tz5f7+qWy7b1l969t6RdmmSz/rg99pPzh7Vf1Sys9t+e/lQ/ed7xfuqx87A9+s3zgin4RAAAAAAAAfsqcPn26nzt3O3fuLPv27Wvnz48Rqje8p9y44UQ5dHC5XzFwbG/5+uFSNr3ltQtTw8It28uO8yRMfeZDHym7P/E7zfSR8rFDny+/u+dov33a0fK5PxqWf2+59r7/Wf50qd88pQtTN5Y/acs2029vLH/0e/eXp/rtAAAAAAAAwOou+vjHP/77/fxP0CXlkhMHy5P7v1vWb33bRMi5/OTe8uQ/vrW875c3N6W6kaWfevjR8vjjX2umg+XFa28qmy+NkkvlM7seK8deerw8HNsPvliuu+mF8le77i972rLN9N31Zev1Xe1tPXuPN2W6erv9x2Wffum6ctPmbktbdt/x8uLXPlcefizZPlHX2FN/9sflV/dvKL++ZTyKNILOD/z1xeXX1y2V//jly8p/+ve/WLqtl5a3XvHt8l92P1/uuuXN5fXtuoGlh8u//T/D8leVf3npgfKf/19T16D+ztGy+39/tZx5351l+3VtB5WysFCu+tu95f9e8e7yiz/ZJBkAAAAAAAB+LF555ZV+7tx94QtfKEePdoMgz5vvUF245R1lUzlSnj7Qr2gtl6VnTpSN1y62IevoY3p3fLTsiGnb+vLUgw+V8QDNI+WpH7yj27Z9sSzdu6c8v+WebnnHPeXG43vKpx+dMQq2DVOHZW8v6/ffP1n28P7y/ZvrcTeVE/v/suw91m1abbTrjW+/ppRHlgajQo+Wv/7q8fKht28pZfGesvsTTbv6LeG5fzjRz63UbnvzFeVN/XK4/F9snKq/uqp84GO/M/VxwEfLM9/sZwEAAAAAAIC5zptAtZTF8tarSznyjcHn1x54rDx1clO5+ZaIKpfKl/aXcuN7B8HlDXeV264+Ur4+CD7zjwZeKLdu/2j5cFvXpOVHnyhHNmwp7x1tWyx3tqHpY+Owttn+7hv6+RuuL83W8v1Z2ey0xcXyoXIoMs/O954qj3zzmrJtZjP3l/913/HyoTt/qVzer1nhmisnt115RXlXPzvPc3u+Uu5789vLr762n54MAAAAAAAAP7XOo0C1lMV3bikbDz8xGvm59I0jpVx9fWnzv2PL5flyojz14CfLrl3j6YuH26IzLJRbb45Q9P6u7L17S5Z/Lv/gRCmXLUyOMF24vGzsZ380W8q2baXc9+T+dum5fd8sX962ODEqtdN9n+p9295b/t2PIfDsvk+1lI/95iphLQAAAAAAADDhvApUy5WL5ZoNJ8qhgxF9LpWnD28sN75zmC42y3f3H7s7mGaNOm3dcFdX5u4tZePJ/eWBCFY/OxgB+09k/LG/g4/7nTAOU3f/2vS2KYeOlef62dax75Uv97OZUZj6B79ZPnBFvxIAAAAAAACY6/wKVOuo0meWylL7Mbyby+KV/aYrF8r6tX7M7rQrby0fjmB126ZSDh8cfOdqZ+ENG0s5vjw5gnX5ueZor5H6sb97Znzc7/d2l9/9rc+XZz70kblhavt9qd/8XvlOvxza71WdOeK189Sf/XH54H0by598QpgKAAAAAAAAZ+s8C1Qb8f2kJ/eXL+4/UTbdPPi+1LJY3r1lYznyyEODQHSpfGbXJ8tnDvSLE5bL3ns/WT49+H7ViY8QHli45R3tMT8/KtvU+8iRsnHLe1aUPTf9x/7e92T58puvKG/q17YjU3/vyVI+9JHyh7df1a9bxeK28rE3Hyqf2nO0X9F/5+qKEa+dGJn6Hx65pvzJJ+5JA1cAAAAAAAAgd8GpU6de7efPG8uP3lse2L++3LbjrhWB5tJnJ783ddO2j5Y7b4i5CFf3lDJabhzbWz794P7xSNMNW8oHt3chbXuMZzaPluv+R9r5UjZuuWf0UcJZ2XqsldtnWLq//NJ/PVTeNQhPu4/iPd7OT6ohaPdRwOW3f2fwvarduvv6pWF93THKxL613NDEPgAAAAAAAPBT5PTp0/3cudu5c2fZt29fO39eBqoAAAAAAAAA5+K1DlTPv4/8BQAAAAAAADhPCFQBAAAAAAAAEgJVAAAAAAAAgIRAFQAAAAAAACAhUAUAAAAAAABICFQBAAAAAAAAEgJVAAAAAAAAgIRAFQAAAAAAACAhUAUAAAAAAABIXHDq1KlX+/nzw7G95dMP7i8n+sXW1beXHXcs9gulLD96b3ngmc3lg9tvLQsHHiq7vn55N99vr9py+9eX23bcVcZ7V8tl7733l0PX3lM+fMv0nudu6bOfLF8sk+09fyyVz+zaU46UTUmfnA+66/LUyX5xw5aZ13Ykrv8jR/qFjeXGu7eXW6/sF2dor8/hfuHH1g+1n6faM9HW5ujbPlruvKFfGKrlps59ou0r+mWq36aementG7cM7/uV227+wf3tsdI2tup5dibrrGrd0309uW93nLXUt4p598LUe8uK+if2X/u9MXlPDZ3F/bXavTH9nrji2s/rt7N8ps7GvD4dmf1MzH0e513T1fptnnn7Tpzb7Haveryp+lsTz+Wc67LK8aev+VmdNwAAAADAz4DTp0/3c+du586dZd++fe38eTVCNQLQXQ8+W665+6Nlx4463VNuPL6n7Lp3b1nuyy3csr3sWEMgsHDLO8qmcqQ8faBfMXTgsfLUyY3lmutfk1hhZPGOps3nZZj6z8FUwBBO7i8PfHapX5iyIrA4UZ568KGSlJ4RfB0pXxzcV51owyfLrl33lr3H+lVnaemz46BjJMKRqXDlyCOfLJ9ZcW8ulc9MhzCNeDYm2h79Mmr7jH47vKd8+tF6Ziu3n9h///jYx5bKodgWYU/zzK0txJwMdMJEnSHOeddUu6oDB9t9I4CLY955Q7RxZX3jc5hj3r0wFfyFifau2H/WvXF2Nm55zzmFqeHII/X+a/p5qt2Tz8S8fptxb6z2TJ2VlW3LrtmsZ2LFPR19vmtwzeZd01X7bY55z+OK+2X195ZZlr4xfcZDc67LvOOveH661QAAAAAA/Hhc9PGPf/z3+/mfrGN7y59/8Xj5+ekRSOWSsvmm9eU7jy2VU9feVDZf2v0i/lN7j5fr1j1ZPhW/FP/h0XLg8SNl/da3TYWsC+XV736t7P/Wi+W6mzY3NY0tfWV3eWbju8vdb4894pfb/708/NjXyuOPN9PBQfn4xfafP1uOP/u58vDuZtt315etb1wqn/4fnyuPRdlmevql68pNm7vaI7R74OmmTA1q45f+D+7u6n38YHmxP4cQZT9/7MXyrYc/V/b0dX3n0q3lbe35d2169MS47gnRrmjDwSPlO/t2lz1N22s72jZEW9s6h/2yXA4+/q1ysmwo143WRTB2/+j47fkNQua2rx9+tK+rmYZ9M91vzTRufydvy3jbaJ9jT5RH/+ZoeSlGav3G3WXbtS+Wpw80yyd+OOPaNvvHNTzRjc7a/v6tZX1zrZ85cbK8PNWGzlL50u449xgF95Hy/q3NPRV98cMXy4WDa1LKC+XZfX9bjv3wdeWqG4brw+p91Wqu9wP7akoyrmP5yb3lyaMvtQHIr/+bbWVrf27LZybrWPrs/WV/TVFed1X5hbavl8sTe7/etClGqf1GuXtbbfu6clX0S9JvJ/7xwu5aHfhCefjppk11+6VHyuPPnCwn49hnHiu7/uLvy0txvBPfas6ru0cv+Xb0ZbPLhhfLE8392d3rg+t34LGyp6mjDWE//P6ydVhnnE/c9229G8vGDS+Vl344vufae+qrXej20tG/7eq99lT5u+E59PW99HNXjfpntXtx3r0w3f/XvXSwHGiWu/aWsvfzX276t+5/XXnxYHMPnBzeG/m1X7h+a9m6dTy1x351S/mVOxZH7zmTbZ96H5jZ9qbPLmqe59c/W56IZyB7Jqav/XS/reWZmniPmn6Gp857uH36HuifqeV633UVJM/E9D29tb8my6NrNu+artpv7Xtmfs3mPY9Lez5XDjZ11+0r7qenY3mV56N5Zpe+Fu8j9f2mvz/648+7LsurHP+KgzOenzju1HWcfr8FAAAAAPhZ8sorr/Rz5+4LX/hCOXr0aDt/3oxQXT74bDlx9TumwtRqsdy5YzpobdxwV9mxbVMXFCUfrbn4zi1l48lny9LEqKWl8nR8XONbYo9upFB89G8dFXvbZVMjuE7uL4fe0G+/o7SjstZvqyNoby/rp0fmVfEL7keeLzfWEbfb1penHpwcQXVi/7Pljf32D27ZWI48UkchLZRbt69htODJI+VIm1V0o20jpJw/CrOKwGFq5NhwZGMEIaN0r9f0xef77RH+TY8+HI4QO7u2NJafa0dkbbx2sQsBrlwo6+N1w+UzQoHlsnw8XjeVt/ajsxbf0twLjeefm3GEY8vl+Xi9+vr+Plkob9wQr+vLwsx7btqcvgoRckfAf/WWcmNb9xocb86jn43QLfpr05bmnu3Xdbp7Ycf0M1DPZUW/LZZr4vgnn2vrXn6uPfOy6eZ+VHc8N+29PH/85JH9w1Fy4+s3qrN9hho3XN9cicbgfLoRr+8r1/SLq7ry1vLhaNPUyPNR/avei/PvheUftD00GpG+cHl7Z5WNb4jl5fL9uI+b95F3t/tP9/carn3VtLO9hrWvG3FdJ9s+HG24su0Lb+iu/vrLhz0xpT4T8/pt3jPVvkdNnNlgpGa8N64cWTp+j0r0913rHJ6J7prNu6bz+u0srtlQe/+O6765f/9tP3mg6efpkaDZ8xHta++pWLcrRrw30/BnyqrXZe3HH6n9PKE59msyEhkAAAAAgPNmhOqz+x4t33/D1tmjMae8cGhfOXD8sm703vLflcf/4fX9SL4ZLr2kHD/49XLozHik5/Kjf1m+8o9vLe/75X703j9cOzGabOH69eU7u58ox2IUWXm27D/wYrnm1nf1I8q6UZ7l2jqKa6G8bWudb7bGyKVyXamj3l66/s5yx2Jf85VvK+u/+2j56re7UVBt2dEo2VIuef3x8vSBY+XiiRGTiReiXUfbEYDdCK/Ypx+FWUc9Ne1qR30dPlSOtyOrpkao9iPMRqO0tnYj8w4f/kE3sqlp73DkXR2FWEe/daO0xiPMunK17fPaEv3c7VP7LvonlieuU4wiu35bedeK++LZ8jePDc4lVsW9MDWqceTSzeWmaF9dX0dtXv2vy/vjXEYjCGNUWRR4qRw70I/0ipGQ6w6Xr6zWV819sffP95TDMSLtwzeXF6ZGuV5y6ptd29oRZU2d7bVrjEaZxgjtQ+Wlq28v2//VC921HY1QHYgA7MF95WSElX0gunzw8Xa05euu+oW+7+oo2wvK+uZeKn//aHudNpzZV/bs7kdJ1tF60ef9de1GGv5S2946Am969GEd0dvVWcqG0XPQ31v1fKLetq9rW8bX6ZLNN41GiHb9eXN3/XrtyOV9J9uRh6MAadV78YW590J3r9V7s7lW7YjUjeXn47l+YakbBXrVunJ89+5+RONgFOm85ySqbPX1vm5L997Sr+tGYg5GKrZtP1K+344oXyibb4q21XqWyl89/HftSOp3vL9Z19y3b+qfmwOj+6Z55n7ljrLYnsvYav02+5l6YWpk7rhfu5G7m/u21akfudvfV5svOdaPqoyRzdFncQ1Cv/3S1Z6JS5q3sLjHxs9Z3A9hbde0ti3ptznXbPOqz+Pry7fj2Bs2lJf70f9RZjhyd97zMbqnuuKd6Kfhc5del+Xu3JPjz3x+6vtbneqI11fXT44WBgAAAAD4GfFTO0J1pRgd1Y/s6ae5o4tmWii33rypnNj/WD+qarksPXNiNDKoHWl3cn95YHCcXdMjmyYslne3I0n7sukIoG6E0vQoszqK6jWzYXNZrIFkHYU5OJ86Mm7WqM06yjC+97A77zri9PmyPBzRG6OfYvvUCKhuxFiMtuv7Yvj9h2fZlmmjUX1X377G7/Q8C3VUXoS9a/y+2x/M6asIRGJ507bZI6VHo6mrDZvKptGIvQjiYqTbpnLbvPb0o0tvK3uaNpzN97yeKEcOd/3fOtzsP3f02sZy4ztrexbLW6+O1xPl++fyGJ6FbjTe7aXEMzY9ojm5F9cu3le6a7dp29SI38NHBs993Ndd/675OTkQ38vc1DsYnRrHWzFSsW/7iR9Md2QdVRn/k8L4PupG1w7Nvgar9ltj5TNV2zYe5ZmNXo6wdnzevRgde/dwNHVzT7f3SGfeMxHtvW1QfuPVmwZ1nY2V/Tb3mq36PPZGo/87K7/zeJXnox+B2gau0Z/NdWmPdvjg+D2yl77XzT3+LNEXzflOf+8uAAAAAAA/kvMmUI2gcTJgqB+7GdM9a/8I1VnajyM9Up6OX0YfWyqHTo4/SrHVfmRwPVadZnzEcG/hlu1dmfiFfARTu8417P2nszK8WU0fCkTwGL+c/8pC97GiwwAi9OFLfFRxpwuN5v3Sf15bhgFD/rG09SN7V+o+xjUxDFMHH5M6uqajey3Cmf5eaMq9oS01S/TVUvlSHxZ3QXsNb7qwedQfNaxq67y+tMP54iM++yBuFLrVMKQNox8qSzVEHIRkXTB/ohw6uDz6+NqVuo8zriF+jGZrj11DsBnhzqQ8PE3/x4CZH888X1zzyeeov77147pXvRfXei8Mw9ThKM7+41Yj0O6vTxf0df2bm+yfpW9EULqxvHGtHTD8eOSJUHDw3tOcd/ux2VPBXP3Y3bn91lvbMzWt/k8t95bld8axZ7wP148cbqf3lDe2H1Ub993anon6UbYxffgtsbVes7Ve06TfUoNrlj2Po2OP3wPqe9yRbwyfmPz5WBlM1zonQ/jZ12Wtxx8YvUcsl3fHcSeCbgAAAAAAflTnT6B6/eay8fATZzHi7mz0o0q/sVSWvrK/nBh9j2Zz3Aijht/5dzYGgeKJZ5am6uh+KT49GnPlaLPX0Oh7+GYExDNClNH3SNagbTBF2NQFRGX0fYx11Ne0iYC50f7S/yzbUq09+FkoC5fFax+UN2p70++eTMLUtZjXV3PVQLCOCj1wsGl547KIb+YYfSfq/vKl9ly7UdahPdeFy9vwZHQPtv/TQPPah5srAtdRgDjfOMDpvnc4Qp4IDGudo+1ncz4ztM9/8zoaSV7PoQ3n5t2La7kXkjC1tTK8GwbGa7v2ff8MR4y3at3jsHY0je7BPBTMnrkazM3rt5A/U7VtR8rXayA7DO9H91E9pzqitTcd9E/dd/N0o17H4erkNVvLNc37be41W/V5rMceW/EM9bLnY0XQfZbXZa3Hr9rvIG9eR9/JWkfIAgAAAADwmrjg1KlTr/bzP3HdL5jLil+Oxy/eY5RW/HI8PhKxLffM5i4Ui1+Mf/3y+QFZ/PK/Hfk3/cv3Pmi5bPBL7TZ4K+W2HXeVxXa/Z8s1o326X+KXUSjT7X/o2q5tbVtLX1dbz/Pj400tT5QNK441VMODCGZqu5rzmQoHa19Nquc8Vceozil9ncsz62q0AcDCKKCaVgOr1dsy3j4KuEbXaFrX3oU+gKj3Qdef062v5zZdf3Ku2f1wcnr96n01ee/NqmPW/tPH6M24tqPwZUI913FYODTqp2T7KMip/TgIdmZfu8aoTbP7Y2VYWY89vi7t2ulrOaeNaXumz2HC+Jiz+6+x6v71+qzh2tdrNujDKjv26s9Jf/2uX5r9TIyOPefaznmmFmeed9+2hWzf2i+zj73yHgi17OCen3XsYZ/Ouaar9tsty3Ou2ZznMem3eddsVH+y/+h+n3dd5hx/+vlJ7+9hfwIAAAAA/Aw5ffp0P3fudu7cWfbt29fOn1ffodqOdLx7czk0+k7Obvri8S3tKMcueJkSH+fbfjTqnO+TvPLWcnN8jOeMEWS3br+9bOo/uredapjal5i0WO7ctqn/GMuY7m/D2Nltu6vs2LZ+/B2jw3B1rgggzv6jhKe/lzCs+K7IkeZc6nf7jWwqt/W/gF+8Y7gtwob+Iz/bj4qNflv5EaDxC/4appxdW5oz7kdZrVnbv8PWRxuT61ZHoM1VP2p6up2r99V83X0zNghv1iCejfFHK4dxsNS1eepaXD28J/t7vF9qzQj+Ztm0ZfI7Msfnu7I/htf+7M0+h9rG1e/Fxqr3wnhEb6rZf7J/h9dnDdd+lRGBK6/dsK/qyMbEiu8pbUyEZKv329xnakW/DdrWHPu9w3ZHvW3Z+lHIzbHfO9m22WFqojn2xPvDdPi36jWd029zr9mc5zH6fapfZp1b+nzMuG41/Axzr8saj18t3PK+iXsgyrZ9O/XRzwAAAAAAnJvzaoQqAAAAAAAAwI/ip3qEKgAAAAAAAMD5RKAKAAAAAAAAkBCoAgAAAAAAACR8hyoAAAAAAADwU2PWd6g+9NBD/dxKd911Vz835jtUAQAAAAAAgJ8Zs0LTkK0fEqgCAAAAAAAAP/Wmw9O1hKlBoAoAAAAAAAD8TKgh6lrD1CBQBQAAAAAAAH5mnE2YGgSqAAAAAAAAAAmBKgAAAAAAAEBCoAoAAAAAAACQEKgCAAAAAAAAJASqAAAAAAAAAAmBKgAAAAAAAEDiguvedNOrF144zlVfffXVcsEFF7TTmTNnSmx75ZVX2tfYVl9jey1fl6Nc3TfWheH+dXu8XnTRRaN9w7C+UJfrvsM6Q6wPsX64b5Q9ffr0aJ+6PsRybUNtT62/bo+yw2PWdaHuW48TrzGtW7eu7avYNhTbYl3tx1CX4/xDrTvEtlp/1dUxvj7RhjhenGPUUdsadVa17VEmytb66mtsq+dSzyPEfKyfng+1fN031OPE/nWqdYa6PNxWTfdBbIsp6q5tqtPwOLUddb/hfVTLRpnp+ysM21Vf63Fjvl6n2o54Hbal9nctX0WZ6Os6X0W5WH/xxRe3dQ/3m56vhvVOl61tieWYj7bEckz1fKu6T7wO+6wuD/cftrnuE1Ptj658V/+wDbV8Xa7HiSnWhfH+3WstN319hvWFulz3HdYZYn2I9cN9o52nT7/c71Ovdy0bbeiuQ5SL+Vp/3R5lu3UXteWGx4317fIrzXEuaso2r7Ft3cXN83+6q7drSSe2xbozzXEu7NtSly9q6g/Dc2r3j/oH62odVbRhbc9/c0+eebmsu+jiUX31Neqr5xJl6/qYj/XT86GWr/uG7jhde+vU1Tn5XA+3hfj7dNMH66bKxRR11zbVaXic2o663/A+6sp2fdKu769PFfWEui5e63Fjvl6nth3NfRBXs7al+WvU3/U+qdp7runrdv6C7pxC1BPrL173c831OT06Tt02nO96Zdy20LS+fY12xHy0LbZH+Yuadp1p2hLL8Sf6crhvrT9eh31Wl6OuOMco092b/fGbP3G8KHfmleYe68u1x27+jNsw7su6T9tnzX5ND7brQu2r0Wtfrr1H+n3bcs2f0NYVq/r2vhptj+vf/KllQ6wP7Xn1ZaO+OE70db1nutW1LU0dsV/zOjr/5ppf0N+HUbwtW4/ZrBged9SPTZnhPbruoub5j3pi20Bsi3W1PaFbbu795l4KtW1h+nih1hHi72hDHG+15z/ujdgn3gfXrYvnv+ureqzYVs+lPY/+eF2fdPXU/qlnVMu3+56Z/fw3f43qDFFv7B+vw/MI0d5of6jb4s/wXqt1tseJcs2f0TXo94v30Vo2pijb9tFgfRX1hljfvjbb6nGbmts21XMa9c+gLXGsrk+68iFaEmVON9c41HMPUS7WX9xcg3p/1PZMzrcvrdq2MF22tiXqrecZ7Yhtqz7/fZuj9ro83r+rt+qe1aZ0M9X3w9E1iTY0+3X11vJd34yO06yP+VgX6nEuvDD6tNsvXi+6KMqMzzf2aZf6/brlKNtfk2b/ui3E+hDlatnYHj+Xxz//x+uj7lgeXde+XWea+z3mQ6yPsqNjNsvtur6N9d8O7XGa7fEaU/fv/+79faSZjW2xrruvum2xfLp//ttWNWWq2BaXYriu1lFFm2f//O/uv1DbHmXi3ya1vvoa24b90K2Pc4r6+ue/WR9lqlq+7hvqcWL/OtU6Q7vcX7e6rRP/1o6f0YNyg7prm+o0PE5tR92v/Tk/VTbKDNdXw3bV13rcmI82xXWq7YjXdp+oJ+7ZdU3/NGVq+U7Xb9HXoV7nEOVON/8uvDj+fdhc8+F+3c/DOt8cs52bbG+dbTY3x+/qju21XdHGWI5y0ZfDfS/sjxVlh31Wl8f7921uXqNE3Sem2h/xvNZjx361TKv/N1ZXb7x2x4h1oR5n9NqXi+e07huG/55oa+7rfzX6u9l3WGdo/10QM8362pb23+VN2fbf4k1741jt+na/6ONxX8TPyJivbQvtMZo66vtdTMPj1n1jub4fxp+L4+d/f32HYnscs30fjXPo/8TyrH//R3vjT9RZ1TqqOO/253/zvM/8+d/sGstRV/v8t//932+Km6gRfd29lzXl2uvarm7a1PRP098h6oi6q3ruMdX17Tk1y+05NFPb1mY51kdD6nK8Rr/GfBXtXfHzv5nq+bT7NO2N1+Fxaju6/brnvJlpt9WyUWZtz//4nGLdmdPNsZufS107ok3dPrWetr/jmWjWT9cbz3k3Pz7H2H/8/I/vnW7b5Hw1rnfc9lq2tiWWu+eyPv/j98Gq7hOvwz6ry7WfosywzXWfmLqfW929Eu9xbX8P2lDLTx8nplgX6nHqay3Xtbc7fhjWF+py3XdYZ3ilv99jfbw/NBvb7Rc29b788sttO5uNzTRZZ21DbU/9WV+3R9nhMeu6UPdtj9Nsj9eYup//yfPfrKv9GLXU5fa+bcuMn7F4HmN7vP9UbR2D6xNtWNt//19QXh49/13762t7jP5c6nmEmI/1w/luy/zn/5Vmqm2N9aFd7reP5tstr83v/+KY9b4flW1+rsQzGj+r23XNc1y1P3Masb6+jo7bzNfrVNsRr8O21P6O9bWOEGXqz//2XuxFuVif/f6vWRjPN2JpWO+wbMzXtsRyzEdbYjmm2g9V3Sdeh31Wl4f7x3xV94mp9kct326rr319MV+X63FiinVhuH/dHq/D6xaG9YV6z7fvt811G9YZoo5Qjxdiexzn9Mv/BL//j/useY35ef/9H+9V9b6oyxc2+4Rad/wd22r9Va2jip//F7X/3mjOsenDC5vt0dbh81//vTT++d8fo3/tfv6P+6Gur30yPR/a+b59wzK1vXVq62zaFepyPIN1vho9/82qui2m+J1WbVOdhsep7Q6xvOL5b8pGHXFN6vWpYluo6+K1Hjfmf9TnP9bUY8SJRbnVnv/hfDWqN/ol+q15rWVrW2I55qMtsRxT3BOjfRt1n3gd9lldHu4/bvO4T5q/Rv1Ry9eyozJNI2O+LtfjxBTrwnD/uC613Nznv1+u+w7rDLE+xPrhvt1/i03//n9cZ21jbVe93+r2KDs8Zv3v1zD8b7/YHq8xjX/+X1D+P6nzVU0A4iSsAAAAAElFTkSuQmCC;fontColor=#000000;clipPath=inset(0% 0% 37.92% 0%);" parent="1" vertex="1">
                    <mxGeometry x="130" y="100" width="1876" height="578.4333333333333" as="geometry"/>
                </mxCell>
                <mxCell id="3" value="" style="rounded=0;whiteSpace=wrap;html=1;fillColor=none;fontColor=#ffffff;strokeColor=#FF0000;strokeWidth=2;" parent="1" vertex="1">
                    <mxGeometry x="190" y="345" width="180" height="20" as="geometry"/>
                </mxCell>
                <mxCell id="4" value="" style="rounded=0;whiteSpace=wrap;html=1;fillColor=none;fontColor=#ffffff;strokeColor=#FF0000;strokeWidth=2;" parent="1" vertex="1">
                    <mxGeometry x="700" y="340" width="90" height="50" as="geometry"/>
                </mxCell>
                <mxCell id="5" value="" style="rounded=0;whiteSpace=wrap;html=1;fillColor=none;fontColor=#ffffff;strokeColor=#FF0000;strokeWidth=2;" parent="1" vertex="1">
                    <mxGeometry x="190" y="365" width="70" height="25" as="geometry"/>
                </mxCell>
                <mxCell id="6" value="" style="rounded=0;whiteSpace=wrap;html=1;fillColor=none;fontColor=#ffffff;strokeColor=#FF0000;strokeWidth=2;" parent="1" vertex="1">
                    <mxGeometry x="150" y="345" width="40" height="45" as="geometry"/>
                </mxCell>
                <mxCell id="9" style="edgeStyle=none;html=1;exitX=0;exitY=0;exitDx=0;exitDy=0;entryX=0.5;entryY=1;entryDx=0;entryDy=0;fontSize=25;fontColor=#000000;strokeColor=#0a0a0a;strokeWidth=3;" parent="1" source="7" target="6" edge="1">
                    <mxGeometry relative="1" as="geometry"/>
                </mxCell>
                <mxCell id="7" value="1" style="ellipse;whiteSpace=wrap;html=1;aspect=fixed;strokeColor=#FF0000;strokeWidth=2;fillColor=none;fontColor=#000000;fontSize=25;" parent="1" vertex="1">
                    <mxGeometry x="290" y="460" width="35" height="35" as="geometry"/>
                </mxCell>
                <mxCell id="14" style="edgeStyle=none;html=1;exitX=0;exitY=0;exitDx=0;exitDy=0;strokeColor=#0a0a0a;strokeWidth=3;fontSize=25;fontColor=#000000;entryX=0.5;entryY=1;entryDx=0;entryDy=0;" parent="1" source="13" target="5" edge="1">
                    <mxGeometry relative="1" as="geometry"/>
                </mxCell>
                <mxCell id="13" value="2" style="ellipse;whiteSpace=wrap;html=1;aspect=fixed;strokeColor=#FF0000;strokeWidth=2;fillColor=none;fontColor=#000000;fontSize=25;" parent="1" vertex="1">
                    <mxGeometry x="360" y="460" width="35" height="35" as="geometry"/>
                </mxCell>
                <mxCell id="19" value="" style="rounded=0;whiteSpace=wrap;html=1;fillColor=none;fontColor=#ffffff;strokeColor=#FF0000;strokeWidth=2;" parent="1" vertex="1">
                    <mxGeometry x="1040" y="340" width="80" height="55" as="geometry"/>
                </mxCell>
                <mxCell id="24" value="" style="rounded=0;whiteSpace=wrap;html=1;fillColor=none;fontColor=#ffffff;strokeColor=#FF0000;strokeWidth=2;" parent="1" vertex="1">
                    <mxGeometry x="910" y="337.5" width="110" height="62.5" as="geometry"/>
                </mxCell>
                <mxCell id="27" value="" style="rounded=0;whiteSpace=wrap;html=1;fillColor=none;fontColor=#ffffff;strokeColor=#FF0000;strokeWidth=2;" parent="1" vertex="1">
                    <mxGeometry x="1450" y="337.5" width="350" height="55" as="geometry"/>
                </mxCell>
                <mxCell id="29" value="" style="rounded=0;whiteSpace=wrap;html=1;fillColor=none;fontColor=#ffffff;strokeColor=#FF0000;strokeWidth=2;" parent="1" vertex="1">
                    <mxGeometry x="1800" y="337.5" width="120" height="55" as="geometry"/>
                </mxCell>
                <mxCell id="34" value="" style="rounded=0;whiteSpace=wrap;html=1;fillColor=none;fontColor=#ffffff;strokeColor=#FF0000;strokeWidth=2;" parent="1" vertex="1">
                    <mxGeometry x="1520" y="240" width="460" height="55" as="geometry"/>
                </mxCell>
                <mxCell id="38" value="" style="rounded=0;whiteSpace=wrap;html=1;fillColor=none;fontColor=#ffffff;strokeColor=#FF0000;strokeWidth=2;" parent="1" vertex="1">
                    <mxGeometry x="750" y="240" width="460" height="55" as="geometry"/>
                </mxCell>
                <mxCell id="44" value="3" style="ellipse;whiteSpace=wrap;html=1;aspect=fixed;strokeColor=#FF0000;strokeWidth=2;fillColor=none;fontColor=#000000;fontSize=25;" parent="1" vertex="1">
                    <mxGeometry x="450" y="460" width="35" height="35" as="geometry"/>
                </mxCell>
                <mxCell id="45" style="edgeStyle=none;html=1;exitX=0;exitY=0;exitDx=0;exitDy=0;strokeColor=#0a0a0a;strokeWidth=3;fontSize=25;fontColor=#000000;entryX=0.5;entryY=1;entryDx=0;entryDy=0;" parent="1" source="44" target="3" edge="1">
                    <mxGeometry relative="1" as="geometry">
                        <mxPoint x="375.12563132924083" y="475.12563132924083" as="sourcePoint"/>
                        <mxPoint x="235" y="400" as="targetPoint"/>
                    </mxGeometry>
                </mxCell>
                <mxCell id="46" value="1" style="ellipse;whiteSpace=wrap;html=1;aspect=fixed;strokeColor=#FF0000;strokeWidth=2;fillColor=#FFFFFF;fontColor=#000000;fontSize=25;" parent="1" vertex="1">
                    <mxGeometry x="290" y="460" width="35" height="35" as="geometry"/>
                </mxCell>
                <mxCell id="47" value="2" style="ellipse;whiteSpace=wrap;html=1;aspect=fixed;strokeColor=#FF0000;strokeWidth=2;fillColor=#FFFFFF;fontColor=#000000;fontSize=25;" parent="1" vertex="1">
                    <mxGeometry x="360" y="460" width="35" height="35" as="geometry"/>
                </mxCell>
                <mxCell id="48" value="3" style="ellipse;whiteSpace=wrap;html=1;aspect=fixed;strokeColor=#FF0000;strokeWidth=2;fillColor=#FFFFFF;fontColor=#000000;fontSize=25;" parent="1" vertex="1">
                    <mxGeometry x="450" y="460" width="35" height="35" as="geometry"/>
                </mxCell>
                <mxCell id="49" value="4" style="ellipse;whiteSpace=wrap;html=1;aspect=fixed;strokeColor=#FF0000;strokeWidth=2;fillColor=#FFFFFF;fontColor=#000000;fontSize=25;" parent="1" vertex="1">
                    <mxGeometry x="680" y="320" width="35" height="35" as="geometry"/>
                </mxCell>
                <mxCell id="50" value="5" style="ellipse;whiteSpace=wrap;html=1;aspect=fixed;strokeColor=#FF0000;strokeWidth=2;fillColor=#FFFFFF;fontColor=#000000;fontSize=25;" parent="1" vertex="1">
                    <mxGeometry x="890" y="320" width="35" height="35" as="geometry"/>
                </mxCell>
                <mxCell id="51" value="6" style="ellipse;whiteSpace=wrap;html=1;aspect=fixed;strokeColor=#FF0000;strokeWidth=2;fillColor=#FFFFFF;fontColor=#000000;fontSize=25;" parent="1" vertex="1">
                    <mxGeometry x="1020" y="320" width="35" height="35" as="geometry"/>
                </mxCell>
                <mxCell id="52" value="7" style="ellipse;whiteSpace=wrap;html=1;aspect=fixed;strokeColor=#FF0000;strokeWidth=2;fillColor=#FFFFFF;fontColor=#000000;fontSize=25;" parent="1" vertex="1">
                    <mxGeometry x="1440" y="320" width="35" height="35" as="geometry"/>
                </mxCell>
                <mxCell id="56" style="edgeStyle=none;html=1;exitX=1;exitY=1;exitDx=0;exitDy=0;entryX=0;entryY=0.25;entryDx=0;entryDy=0;fontColor=#000000;" parent="1" source="53" target="29" edge="1">
                    <mxGeometry relative="1" as="geometry"/>
                </mxCell>
                <mxCell id="53" value="8" style="ellipse;whiteSpace=wrap;html=1;aspect=fixed;strokeColor=#FF0000;strokeWidth=2;fillColor=#FFFFFF;fontColor=#000000;fontSize=25;" parent="1" vertex="1">
                    <mxGeometry x="1790" y="320" width="35" height="35" as="geometry"/>
                </mxCell>
                <mxCell id="57" value="9" style="ellipse;whiteSpace=wrap;html=1;aspect=fixed;strokeColor=#FF0000;strokeWidth=2;fillColor=#FFFFFF;fontColor=#000000;fontSize=25;" parent="1" vertex="1">
                    <mxGeometry x="1510" y="230" width="35" height="35" as="geometry"/>
                </mxCell>
                <mxCell id="58" value="10" style="ellipse;whiteSpace=wrap;html=1;aspect=fixed;strokeColor=#FF0000;strokeWidth=2;fillColor=#FFFFFF;fontColor=#000000;fontSize=25;" parent="1" vertex="1">
                    <mxGeometry x="740" y="230" width="35" height="35" as="geometry"/>
                </mxCell>
            </root>
        </mxGraphModel>
    </diagram>
</mxfile>
